<mxfile host="65bd71144e">
    <diagram id="PHJKOffof5LnZd3YNMgV" name="Page-1">
        <mxGraphModel dx="1338" dy="2313" grid="1" gridSize="10" guides="1" tooltips="1" connect="1" arrows="1" fold="1" page="1" pageScale="1" pageWidth="827" pageHeight="1169" background="#FFFFFF" math="0" shadow="0">
            <root>
                <mxCell id="0"/>
                <mxCell id="1" parent="0"/>
                <mxCell id="72" value="" style="edgeStyle=elbowEdgeStyle;html=1;exitX=1;exitY=0.25;exitDx=0;exitDy=0;startArrow=classic;startFill=1;" parent="1" source="84" target="69" edge="1">
                    <mxGeometry relative="1" as="geometry">
                        <Array as="points">
                            <mxPoint x="1150" y="-115"/>
                        </Array>
                    </mxGeometry>
                </mxCell>
                <mxCell id="73" value="Image Description" style="edgeLabel;html=1;align=center;verticalAlign=middle;resizable=0;points=[];fontSize=18;" parent="72" vertex="1" connectable="0">
                    <mxGeometry x="0.0316" y="-1" relative="1" as="geometry">
                        <mxPoint x="-28" as="offset"/>
                    </mxGeometry>
                </mxCell>
                <mxCell id="74" style="edgeStyle=elbowEdgeStyle;html=1;exitX=1;exitY=0.5;exitDx=0;exitDy=0;entryX=0;entryY=0.5;entryDx=0;entryDy=0;startArrow=classic;startFill=1;" parent="1" source="84" target="94" edge="1">
                    <mxGeometry relative="1" as="geometry"/>
                </mxCell>
                <mxCell id="75" value="&lt;font style=&quot;font-size: 18px;&quot;&gt;Image Enhancement&lt;/font&gt;" style="edgeLabel;html=1;align=center;verticalAlign=middle;resizable=0;points=[];" parent="74" vertex="1" connectable="0">
                    <mxGeometry x="0.0018" y="2" relative="1" as="geometry">
                        <mxPoint x="38" y="1" as="offset"/>
                    </mxGeometry>
                </mxCell>
                <mxCell id="76" style="edgeStyle=elbowEdgeStyle;html=1;exitX=1;exitY=0.75;exitDx=0;exitDy=0;entryX=0;entryY=0.5;entryDx=0;entryDy=0;strokeColor=default;rounded=1;startArrow=classic;startFill=1;" parent="1" source="84" target="97" edge="1">
                    <mxGeometry relative="1" as="geometry">
                        <Array as="points">
                            <mxPoint x="1150" y="230"/>
                        </Array>
                    </mxGeometry>
                </mxCell>
                <mxCell id="77" value="CLIP" style="edgeLabel;html=1;align=center;verticalAlign=middle;resizable=0;points=[];fontSize=18;" parent="76" vertex="1" connectable="0">
                    <mxGeometry x="0.0847" y="-3" relative="1" as="geometry">
                        <mxPoint x="-41" as="offset"/>
                    </mxGeometry>
                </mxCell>
                <mxCell id="78" value="" style="edgeStyle=none;html=1;" parent="1" source="79" target="84" edge="1">
                    <mxGeometry relative="1" as="geometry"/>
                </mxCell>
                <mxCell id="79" value="&lt;h1&gt;&lt;b style=&quot;line-height: 50%;&quot;&gt;Message Broker (RabbitMQ)&lt;/b&gt;&lt;/h1&gt;" style="rounded=0;whiteSpace=wrap;html=1;align=center;gradientColor=none;fillColor=#FFFFCC;labelPosition=center;verticalLabelPosition=top;verticalAlign=bottom;" parent="1" vertex="1">
                    <mxGeometry x="417" y="-510" width="326" height="300" as="geometry"/>
                </mxCell>
                <mxCell id="80" value="&lt;div style=&quot;&quot;&gt;&lt;b&gt;&lt;font style=&quot;font-size: 18px;&quot;&gt;image_enhance_process&lt;/font&gt;&lt;/b&gt;&lt;/div&gt;&lt;div style=&quot;&quot;&gt;&lt;b style=&quot;color: rgb(63, 63, 63);&quot;&gt;&lt;font style=&quot;font-size: 18px;&quot;&gt;image_enhance_update&lt;/font&gt;&lt;/b&gt;&lt;/div&gt;&lt;div style=&quot;&quot;&gt;&lt;b style=&quot;color: rgb(63, 63, 63);&quot;&gt;&lt;font style=&quot;font-size: 18px;&quot;&gt;image_enhance_products&lt;/font&gt;&lt;/b&gt;&lt;/div&gt;" style="rounded=0;whiteSpace=wrap;html=1;align=left;" parent="1" vertex="1">
                    <mxGeometry x="423" y="-510" width="267" height="70" as="geometry"/>
                </mxCell>
                <mxCell id="81" value="&lt;div style=&quot;&quot;&gt;&lt;font style=&quot;font-size: 18px;&quot;&gt;&lt;b style=&quot;&quot;&gt;image_relevance_process&lt;/b&gt;&lt;/font&gt;&lt;/div&gt;&lt;div style=&quot;&quot;&gt;&lt;b&gt;&lt;font style=&quot;font-size: 18px;&quot;&gt;&lt;span style=&quot;color: rgb(63, 63, 63);&quot;&gt;image_&lt;/span&gt;&lt;span style=&quot;background-color: transparent; color: rgb(63, 63, 63);&quot;&gt;relevance_score&lt;/span&gt;&lt;/font&gt;&lt;/b&gt;&lt;/div&gt;&lt;div style=&quot;&quot;&gt;&lt;b style=&quot;&quot;&gt;&lt;font style=&quot;font-size: 18px;&quot;&gt;&lt;span style=&quot;color: rgb(63, 63, 63);&quot;&gt;image_&lt;/span&gt;&lt;span style=&quot;background-color: transparent; color: rgb(63, 63, 63);&quot;&gt;relevance_score_error&lt;/span&gt;&lt;/font&gt;&lt;/b&gt;&lt;/div&gt;" style="rounded=0;whiteSpace=wrap;html=1;align=left;" parent="1" vertex="1">
                    <mxGeometry x="423" y="-440" width="267" height="70" as="geometry"/>
                </mxCell>
                <mxCell id="82" value="" style="points=[];aspect=fixed;html=1;align=center;shadow=0;dashed=0;fillColor=#FF6A00;strokeColor=none;shape=mxgraph.alibaba_cloud.mq_message_queue;" parent="1" vertex="1">
                    <mxGeometry x="698" y="-510" width="45" height="49.8" as="geometry"/>
                </mxCell>
                <mxCell id="83" value="" style="group" parent="1" vertex="1" connectable="0">
                    <mxGeometry x="295" y="-75" width="570" height="310" as="geometry"/>
                </mxCell>
                <mxCell id="84" value="&lt;font style=&quot;font-size: 18px;&quot;&gt;Content_Image_Optimization&lt;/font&gt;&lt;div&gt;&lt;font size=&quot;3&quot;&gt;CIO&lt;/font&gt;&lt;/div&gt;&lt;div&gt;&lt;font size=&quot;3&quot;&gt;(CPU)&lt;/font&gt;&lt;/div&gt;" style="rounded=0;whiteSpace=wrap;html=1;fillColor=#d5e8d4;strokeColor=#82b366;" parent="83" vertex="1">
                    <mxGeometry width="570" height="307.43801652892563" as="geometry"/>
                </mxCell>
                <mxCell id="85" value="" style="image;sketch=0;aspect=fixed;html=1;points=[];align=center;fontSize=12;image=img/lib/mscae/Docker.svg;" parent="83" vertex="1">
                    <mxGeometry x="440.45454545454544" y="204.9586776859504" width="96.45086986871625" height="79.08971329234734" as="geometry"/>
                </mxCell>
                <mxCell id="86" value="&lt;div style=&quot;&quot;&gt;&lt;b&gt;&lt;font style=&quot;font-size: 18px;&quot;&gt;image_tag_process&lt;/font&gt;&lt;/b&gt;&lt;/div&gt;" style="rounded=0;whiteSpace=wrap;html=1;align=left;" parent="1" vertex="1">
                    <mxGeometry x="423" y="-340" width="267" height="30" as="geometry"/>
                </mxCell>
                <mxCell id="87" value="&lt;div style=&quot;&quot;&gt;&lt;b&gt;&lt;font style=&quot;font-size: 18px;&quot;&gt;image_relevance_seo_process&lt;/font&gt;&lt;/b&gt;&lt;/div&gt;" style="rounded=0;whiteSpace=wrap;html=1;align=left;" parent="1" vertex="1">
                    <mxGeometry x="423" y="-370" width="267" height="30" as="geometry"/>
                </mxCell>
                <mxCell id="88" value="" style="edgeStyle=none;html=1;" parent="1" source="89" target="90" edge="1">
                    <mxGeometry relative="1" as="geometry"/>
                </mxCell>
                <mxCell id="89" value="&lt;font style=&quot;font-size: 18px;&quot;&gt;imgrel&lt;/font&gt;" style="dashed=0;outlineConnect=0;html=1;align=center;labelPosition=center;verticalLabelPosition=bottom;verticalAlign=top;shape=mxgraph.webicons.mongodb;gradientColor=#DFDEDE" parent="1" vertex="1">
                    <mxGeometry x="827" y="330" width="70" height="70" as="geometry"/>
                </mxCell>
                <mxCell id="115" style="edgeStyle=none;html=1;entryX=0.5;entryY=0;entryDx=0;entryDy=0;" parent="1" source="90" target="112" edge="1">
                    <mxGeometry relative="1" as="geometry"/>
                </mxCell>
                <mxCell id="146" style="edgeStyle=elbowEdgeStyle;html=1;exitX=0.1;exitY=0.2;exitDx=0;exitDy=0;exitPerimeter=0;entryX=0.5;entryY=1;entryDx=0;entryDy=0;elbow=vertical;" edge="1" parent="1" source="90" target="137">
                    <mxGeometry relative="1" as="geometry"/>
                </mxCell>
                <mxCell id="90" value="&lt;font style=&quot;font-size: 18px;&quot;&gt;relevancy_api&lt;/font&gt;" style="aspect=fixed;sketch=0;html=1;dashed=0;whitespace=wrap;verticalLabelPosition=bottom;verticalAlign=top;fillColor=#2875E2;strokeColor=#ffffff;points=[[0.005,0.63,0],[0.1,0.2,0],[0.9,0.2,0],[0.5,0,0],[0.995,0.63,0],[0.72,0.99,0],[0.5,1,0],[0.28,0.99,0]];shape=mxgraph.kubernetes.icon2;kubernetesLabel=1;prIcon=api" parent="1" vertex="1">
                    <mxGeometry x="830.75" y="724" width="62.5" height="60" as="geometry"/>
                </mxCell>
                <mxCell id="91" style="edgeStyle=elbowEdgeStyle;html=1;exitX=0.5;exitY=1;exitDx=0;exitDy=0;elbow=vertical;" parent="1" source="84" target="89" edge="1">
                    <mxGeometry relative="1" as="geometry">
                        <mxPoint x="600" y="200" as="sourcePoint"/>
                        <mxPoint x="660" y="270" as="targetPoint"/>
                        <Array as="points">
                            <mxPoint x="720" y="250"/>
                        </Array>
                    </mxGeometry>
                </mxCell>
                <mxCell id="132" value="" style="edgeStyle=orthogonalEdgeStyle;html=1;elbow=vertical;entryX=0;entryY=0;entryDx=0;entryDy=0;" edge="1" parent="1" source="92" target="136">
                    <mxGeometry relative="1" as="geometry">
                        <mxPoint x="631" y="510" as="targetPoint"/>
                        <Array as="points">
                            <mxPoint x="553" y="470"/>
                        </Array>
                    </mxGeometry>
                </mxCell>
                <mxCell id="92" value="&lt;div&gt;&lt;font style=&quot;&quot;&gt;&lt;span style=&quot;font-size: 18px;&quot;&gt;metadata&lt;/span&gt;&lt;/font&gt;&lt;/div&gt;" style="dashed=0;outlineConnect=0;html=1;align=center;labelPosition=center;verticalLabelPosition=bottom;verticalAlign=top;shape=mxgraph.webicons.mongodb;gradientColor=#DFDEDE" parent="1" vertex="1">
                    <mxGeometry x="160" y="410" width="61" height="70" as="geometry"/>
                </mxCell>
                <mxCell id="93" value="" style="group" parent="1" vertex="1" connectable="0">
                    <mxGeometry x="1200" y="-5" width="280" height="170" as="geometry"/>
                </mxCell>
                <mxCell id="94" value="&lt;font style=&quot;font-size: 18px;&quot;&gt;Content_Image_Optimization&lt;/font&gt;&lt;div&gt;&lt;font size=&quot;3&quot;&gt;CIO&lt;/font&gt;&lt;/div&gt;&lt;div&gt;&lt;span style=&quot;color: rgb(63, 63, 63);&quot;&gt;&lt;font size=&quot;3&quot;&gt;(GPU)&lt;/font&gt;&lt;/span&gt;&lt;/div&gt;&lt;div&gt;&lt;span style=&quot;color: rgb(63, 63, 63);&quot;&gt;&lt;font size=&quot;3&quot;&gt;Image Quality Enhancement&lt;/font&gt;&lt;/span&gt;&lt;/div&gt;" style="rounded=0;whiteSpace=wrap;html=1;fillColor=none;" parent="93" vertex="1">
                    <mxGeometry width="280" height="170" as="geometry"/>
                </mxCell>
                <mxCell id="95" value="" style="image;sketch=0;aspect=fixed;html=1;points=[];align=center;fontSize=12;image=img/lib/mscae/Docker.svg;container=1;" parent="93" vertex="1">
                    <mxGeometry x="230" y="129" width="50" height="41" as="geometry">
                        <mxRectangle x="1160" y="114" width="50" height="40" as="alternateBounds"/>
                    </mxGeometry>
                </mxCell>
                <mxCell id="96" value="" style="group" parent="1" vertex="1" connectable="0">
                    <mxGeometry x="1190" y="240" width="280" height="160" as="geometry"/>
                </mxCell>
                <mxCell id="97" value="&lt;font style=&quot;font-size: 18px;&quot;&gt;Content_Image_Optimization&lt;/font&gt;&lt;div&gt;&lt;font size=&quot;3&quot;&gt;CIO&lt;/font&gt;&lt;/div&gt;&lt;div&gt;&lt;span style=&quot;color: rgb(63, 63, 63);&quot;&gt;&lt;font size=&quot;3&quot;&gt;(GPU)&lt;/font&gt;&lt;/span&gt;&lt;/div&gt;&lt;div&gt;&lt;span style=&quot;color: rgb(63, 63, 63);&quot;&gt;&lt;font size=&quot;3&quot;&gt;Image-Classification&lt;/font&gt;&lt;/span&gt;&lt;/div&gt;" style="rounded=0;whiteSpace=wrap;html=1;fillColor=none;" parent="96" vertex="1">
                    <mxGeometry width="280" height="160" as="geometry"/>
                </mxCell>
                <mxCell id="98" value="" style="image;sketch=0;aspect=fixed;html=1;points=[];align=center;fontSize=12;image=img/lib/mscae/Docker.svg;container=1;" parent="96" vertex="1">
                    <mxGeometry x="230" y="119" width="50" height="41" as="geometry">
                        <mxRectangle x="1160" y="305" width="50" height="40" as="alternateBounds"/>
                    </mxGeometry>
                </mxCell>
                <mxCell id="99" style="edgeStyle=elbowEdgeStyle;html=1;elbow=vertical;exitX=0.5;exitY=1;exitDx=0;exitDy=0;" parent="1" source="84" target="92" edge="1">
                    <mxGeometry relative="1" as="geometry">
                        <mxPoint x="87.72727272727272" y="667.9752066115702" as="targetPoint"/>
                        <mxPoint x="570" y="240" as="sourcePoint"/>
                        <Array as="points">
                            <mxPoint x="450" y="250"/>
                        </Array>
                    </mxGeometry>
                </mxCell>
                <mxCell id="100" value="&lt;font style=&quot;font-size: 18px;&quot;&gt;S3 Bucket&lt;/font&gt;" style="outlineConnect=0;dashed=0;verticalLabelPosition=bottom;verticalAlign=top;align=center;html=1;shape=mxgraph.aws3.s3;fillColor=#E05243;gradientColor=none;" parent="1" vertex="1">
                    <mxGeometry x="1540" y="25" width="96" height="110" as="geometry"/>
                </mxCell>
                <mxCell id="101" style="edgeStyle=elbowEdgeStyle;html=1;exitX=1;exitY=0.5;exitDx=0;exitDy=0;" parent="1" source="94" target="100" edge="1">
                    <mxGeometry relative="1" as="geometry"/>
                </mxCell>
                <mxCell id="103" value="&lt;div&gt;&lt;font style=&quot;font-size: 18px;&quot;&gt;[&#39;alttags&#39;]&lt;/font&gt;&lt;/div&gt;" style="verticalLabelPosition=bottom;html=1;verticalAlign=top;align=center;strokeColor=none;fillColor=#00BEF2;shape=mxgraph.azure.mysql_database;" parent="1" vertex="1">
                    <mxGeometry x="60" y="41.22000000000003" width="58.75" height="75" as="geometry"/>
                </mxCell>
                <mxCell id="104" style="edgeStyle=none;html=1;exitX=0;exitY=0.5;exitDx=0;exitDy=0;entryX=1;entryY=0.5;entryDx=0;entryDy=0;entryPerimeter=0;" parent="1" source="84" target="103" edge="1">
                    <mxGeometry relative="1" as="geometry"/>
                </mxCell>
                <mxCell id="QI3z4KW6B-_047XigaiU-155" value="&lt;font style=&quot;font-size: 18px;&quot;&gt;SEO alttags for images&lt;/font&gt;" style="edgeLabel;html=1;align=center;verticalAlign=middle;resizable=0;points=[];" vertex="1" connectable="0" parent="104">
                    <mxGeometry x="0.2612" relative="1" as="geometry">
                        <mxPoint x="6" y="-59" as="offset"/>
                    </mxGeometry>
                </mxCell>
                <mxCell id="108" style="edgeStyle=elbowEdgeStyle;html=1;elbow=horizontal;" parent="1" source="106" target="107" edge="1">
                    <mxGeometry relative="1" as="geometry"/>
                </mxCell>
                <mxCell id="QI3z4KW6B-_047XigaiU-154" value="&lt;font style=&quot;font-size: 18px;&quot;&gt;Valid catalogue images&lt;/font&gt;" style="edgeLabel;html=1;align=center;verticalAlign=middle;resizable=0;points=[];" vertex="1" connectable="0" parent="108">
                    <mxGeometry x="-0.3289" y="-4" relative="1" as="geometry">
                        <mxPoint x="49" y="-4" as="offset"/>
                    </mxGeometry>
                </mxCell>
                <mxCell id="106" value="" style="dashed=0;outlineConnect=0;html=1;align=center;labelPosition=center;verticalLabelPosition=bottom;verticalAlign=top;shape=mxgraph.webicons.mongodb;gradientColor=#DFDEDE" parent="1" vertex="1">
                    <mxGeometry x="160" y="850" width="61" height="60" as="geometry"/>
                </mxCell>
                <mxCell id="107" value="&lt;font style=&quot;font-size: 18px;&quot;&gt;catalogue_api&lt;/font&gt;" style="aspect=fixed;sketch=0;html=1;dashed=0;whitespace=wrap;verticalLabelPosition=bottom;verticalAlign=top;fillColor=#2875E2;strokeColor=#ffffff;points=[[0.005,0.63,0],[0.1,0.2,0],[0.9,0.2,0],[0.5,0,0],[0.995,0.63,0],[0.72,0.99,0],[0.5,1,0],[0.28,0.99,0]];shape=mxgraph.kubernetes.icon2;kubernetesLabel=1;prIcon=api" parent="1" vertex="1">
                    <mxGeometry x="490" y="850" width="62.49" height="60" as="geometry"/>
                </mxCell>
                <mxCell id="109" style="edgeStyle=elbowEdgeStyle;html=1;entryX=0.5;entryY=0;entryDx=0;entryDy=0;entryPerimeter=0;elbow=vertical;" parent="1" source="92" target="107" edge="1">
                    <mxGeometry relative="1" as="geometry">
                        <Array as="points">
                            <mxPoint x="410" y="810"/>
                        </Array>
                    </mxGeometry>
                </mxCell>
                <mxCell id="QI3z4KW6B-_047XigaiU-153" value="&lt;font style=&quot;font-size: 18px;&quot;&gt;Classification&lt;/font&gt;" style="edgeLabel;html=1;align=center;verticalAlign=middle;resizable=0;points=[];" vertex="1" connectable="0" parent="109">
                    <mxGeometry x="0.3204" y="-4" relative="1" as="geometry">
                        <mxPoint x="-132" y="-144" as="offset"/>
                    </mxGeometry>
                </mxCell>
                <mxCell id="110" style="edgeStyle=elbowEdgeStyle;html=1;entryX=0.002;entryY=0.5;entryDx=0;entryDy=0;entryPerimeter=0;" parent="1" source="107" target="90" edge="1">
                    <mxGeometry relative="1" as="geometry">
                        <mxPoint x="630" y="530" as="targetPoint"/>
                        <Array as="points">
                            <mxPoint x="720" y="840"/>
                        </Array>
                    </mxGeometry>
                </mxCell>
                <mxCell id="119" value="" style="group" parent="1" vertex="1" connectable="0">
                    <mxGeometry x="757" y="830" width="240" height="220" as="geometry"/>
                </mxCell>
                <mxCell id="112" value="&lt;font style=&quot;font-size: 24px;&quot;&gt;&lt;b&gt;Result page&lt;/b&gt;&lt;/font&gt;" style="rounded=0;whiteSpace=wrap;html=1;labelPosition=center;verticalLabelPosition=bottom;align=center;verticalAlign=top;" parent="119" vertex="1">
                    <mxGeometry width="210" height="220" as="geometry"/>
                </mxCell>
                <mxCell id="116" value="&lt;font style=&quot;font-size: 18px;&quot;&gt;Static Profile Picture&lt;/font&gt;" style="rounded=0;whiteSpace=wrap;html=1;" parent="119" vertex="1">
                    <mxGeometry x="15" y="11.76" width="180" height="35.29" as="geometry"/>
                </mxCell>
                <mxCell id="117" value="&lt;font style=&quot;font-size: 18px;&quot;&gt;Dynamic Profile Picture&lt;/font&gt;" style="rounded=0;whiteSpace=wrap;html=1;" parent="119" vertex="1">
                    <mxGeometry x="15" y="58.82" width="180" height="47.06" as="geometry"/>
                </mxCell>
                <mxCell id="118" value="&lt;font style=&quot;font-size: 18px;&quot;&gt;Image Carousel&lt;/font&gt;" style="rounded=0;whiteSpace=wrap;html=1;" parent="119" vertex="1">
                    <mxGeometry x="15" y="112.94" width="180" height="35.29" as="geometry"/>
                </mxCell>
                <mxCell id="123" value="&lt;font style=&quot;font-size: 18px;&quot;&gt;Enhanced images&lt;/font&gt;" style="rounded=0;whiteSpace=wrap;html=1;" parent="119" vertex="1">
                    <mxGeometry x="12.5" y="160" width="185" height="35.29" as="geometry"/>
                </mxCell>
                <mxCell id="120" value="&lt;h3 style=&quot;line-height: 30%;&quot;&gt;&lt;p style=&quot;font-weight: 400;&quot;&gt;&lt;font style=&quot;font-size: 18px; line-height: 30%;&quot;&gt;System Design Document&lt;/font&gt;&lt;/p&gt;&lt;p style=&quot;font-weight: 400;&quot;&gt;&lt;span style=&quot;background-color: transparent;&quot;&gt;&lt;font style=&quot;font-size: 18px; line-height: 30%;&quot;&gt;Authored by: Mohammed Kashif&lt;/font&gt;&lt;/span&gt;&lt;/p&gt;&lt;p style=&quot;font-weight: 400;&quot;&gt;&lt;font style=&quot;font-size: 18px; line-height: 30%;&quot;&gt;Date: June 23, 2025&lt;/font&gt;&lt;/p&gt;&lt;p style=&quot;font-weight: 400;&quot;&gt;&lt;font style=&quot;font-size: 18px; line-height: 30%;&quot;&gt;Version: 1.0&lt;/font&gt;&lt;/p&gt;&lt;/h3&gt;&lt;h3&gt;&lt;font face=&quot;Times New Roman&quot; style=&quot;font-size: 18px;&quot;&gt;&lt;b style=&quot;&quot;&gt;Problem: &lt;/b&gt;&lt;span style=&quot;font-weight: normal;&quot;&gt;Existing image display lacked dynamism and relevance to user searches, impacting engagement.&lt;/span&gt;&lt;/font&gt;&lt;/h3&gt;&lt;h3&gt;&lt;/h3&gt;&lt;h3&gt;&lt;font style=&quot;font-size: 18px;&quot; face=&quot;Times New Roman&quot;&gt;&lt;b style=&quot;&quot;&gt;Solutio&lt;font style=&quot;&quot;&gt;n: &lt;/font&gt;&lt;/b&gt;&lt;span style=&quot;font-weight: normal;&quot;&gt;Developed an AI-powered visual search platform to dynamically match business images with user queries, enhancing display relevance along with image enhancement.&lt;/span&gt;&lt;/font&gt;&lt;/h3&gt;" style="rounded=0;whiteSpace=wrap;html=1;align=left;" parent="1" vertex="1">
                    <mxGeometry x="290" y="-860" width="560" height="220" as="geometry"/>
                </mxCell>
                <mxCell id="122" value="&lt;h1&gt;&lt;font&gt;JustLens: AI-Based Dynamic Image Matching Engine&lt;/font&gt;&lt;/h1&gt;" style="text;html=1;align=center;verticalAlign=middle;whiteSpace=wrap;rounded=0;" parent="1" vertex="1">
                    <mxGeometry x="290" y="-950" width="560" height="90" as="geometry"/>
                </mxCell>
                <mxCell id="68" value="" style="group" parent="1" vertex="1" connectable="0">
                    <mxGeometry x="1200" y="-190" width="267.06999999999994" height="150" as="geometry"/>
                </mxCell>
                <mxCell id="69" value="&lt;font style=&quot;font-size: 18px;&quot;&gt;Triton Inference Server&lt;/font&gt;&lt;div&gt;&lt;font size=&quot;3&quot;&gt;(GPU)&lt;/font&gt;&lt;/div&gt;&lt;div&gt;&lt;span style=&quot;font-size: medium; text-align: left; background-color: transparent;&quot;&gt;Llama3.2-vision 11b model&lt;/span&gt;&lt;/div&gt;" style="rounded=0;whiteSpace=wrap;html=1;fillColor=#f8cecc;strokeColor=#b85450;" parent="68" vertex="1">
                    <mxGeometry width="260" height="150" as="geometry"/>
                </mxCell>
                <mxCell id="70" value="" style="shape=image;verticalLabelPosition=bottom;verticalAlign=top;imageAspect=0;aspect=fixed;image=data:image/png,iVBORw0KGgoAAAANSUhEUgAABC4AAAJZCAYAAABm2HTlAACAAElEQVR4XuzdeXiU1fXA8TNJgLAJCrJYcV9rXWu1+qtWW1t36261rVZt1bqTzPsmbKIo1B33FQVXFJE9mZkkEJaw7/u+70uABJKQjfzOzcBTOxetC5l5J/P94/MkHCFz7n0nPu85c997paamRgAAAAAAALzICgAAAAAAAHiFFQAAAAAAAPAKKwAAAAAAAOAVVgAAAAAAAMArrAAAAAAAAIBXWAEAAAAAAACvsAIAAAAAAABeYQUAAAAAAAC8wgoAAAAAAAB4hRUAAAAAAADwCisAAAAAAADgFVYAAAAAAADAK6wAAAAAAACAV1gBAAAAAAAAr7ACAAAAAAAAXmEFAAAAAAAAvMIKAAAAAAAAeIUVAAAAAAAA8AorAAAAAAAA4BVWAAAAAAAAwCusAAAAAAAAgFdYAQAAAAAAAK+wAgAAAAAAAF5hBQAAAAAAALzCCgAAAAAAAHiFFQAAAAAAAPAKKwAAAAAAAOAVVgAAAAAAAMArrAAAAAAAAIBXWAEAAAAAAACvsAIAAAAAAABeYQUAAAAAAAC8wgoAAAAAAAB4hRUAAAAAAADwCisAAAAAAADgFVYAAAAAAADAK6wAAAAAAACAV1gBAAAAAAAAr7ACAAAAAAAAXmEFAAAAAAAAvMIKAAAAAAAAeIUVAAAAAAAA8AorAAAAAAAA4BVWAAAAAAAAwCusAAAAAAAAgFdYAQAAAAAAAK+wAgAAAAAAAF5hBQAAAAAAALzCCgAAAAAAAHiFFQAAAAAAAPAKKwAAAAAAAOAVVgAAAAAAAMArrAAAAAAAAIBXWAEAAAAAAACvsAIAAAAAAABeYQUAAAAAAAC8wgoAAAAAAAB4hRUAAAAAAADwCisAAAAAAADgFVYAAAAAAADAK6wAAAAAAACAV1gBAAAAAAAAr7ACAAAAAAAAXmEFAAAAAAAAvMIKAAAAAAAAeIUVAAAAAAAA8AorAAAAAAAA4BVWAAAAAAAAwCusAAAAAAAAgFdYAQAAAAAAAK+wAgAAAAAAAF5hBQAAAAAAALzCCgAAAAAAAHiFFQAAAAAAAPAKKwAAAAAAAOAVVgAAAAAAAMArrAAAAAAAAIBXWAEAAAAAAACvsAIAAAAAAABeYQUAAAAAAAC8wgoAAAAAAAB4hRUAAAAAAADwCisAAAAAAADgFVYAAAAAAADAK6wAAAAAAACAV1gBAAAAAAAAr7ACAAAAAAAAXmEFAAAAAAAAvMIKAAAAAAAAeIUVAAAAAAAA8AorAAAAAAAA4BVWAAAAAAAAwCusAAAAAAAAgFdYAQAAAAAAAK+wAgAAAAAAAF5hBQAAAAAAALzCCgAAAAAAAHiFFQAAAAAAAPAKKwAAAAAAAOAVVgAAgPpoVnU/mba2T4PJG/o0BhBn1vdJnbS+T8MVRX18NTUzrd9vAED9ZgUAAKiPeixu1rRzQC51cuUfAOKLP0fuTs+RK1+bIe1WFff0Rf5+AwDqNysAAEB91HVksyOckLzmBmUVgLiz1AnIpxm58uv81T0bRP5+AwDqNysAAEB91GVMs6OckPR3Q1IDIM4EpVzlZuTIJaNW9GwU+fsNAKjfrAAAAPURjQsgjtG4AICEZgUAAKiPaFwAcYzGBQAkNCsAAEB9ROMCiGM0LgAgoVkBAADqIxoXQByjcQEACc0KAABQH9G4AOIYjQsASGhWAACA+ojGBRDHaFwAQEKzAgAA1Ec0LoA4RuMCABKaFQAAoD6icQHEMRoXAJDQrAAAAPURjQsgjtG4AICEZgUAAKiPaFwAcYzGBQAkNCsAAEB9ROMCiGM0LgAgoVkBAADqIxoXQByjcQEACc0KAABQH9G4AOIYjQsASGhWAACA+ojGBRDHaFwAQEKzAgAA1Ec0LoA4RuMCABKaFQAAoD6icQHEMRoXAJDQrAAAAPURjQsgjtG4AICEZgUAAKiPaFwAcYzGBQAkNCsAAEB9ROMCiGM0LgAgoVkBAADqIxoXQByjcQEACc0KAABQH9G4AOIYjQsASGhWAACA+ojGBRDHaFwAQEKzAgAA1Ec0LoA4RuMCABKaFQAAoD6icQHEMRoXAJDQrAAAAPURjQsgjtG4AICEZgUAAKiPaFwAcYzGBQAkNCsAAEB9ROMCiGM0LgAgoVkBAADqIxoXQByjcQEACc0KAABQH9G4AOIYjQsASGhWAACA+ojGBRDHaFwAQEKzAgAAxLuCggJ5662O8uXEjr6hizr6Bq7umOTkNTjGCclnWgRV/g+lqvi/BGWX2nOAv/tfnLAqVe2G7XUjCzAAPxyNCwBIaFYAAIB48uXcJ3yfT7glud/EWxp8uOCWBu9Ou6Vh5y/PaXT/y3Jo2kDp4ATl5I6j5Ny0oFyjBdDrWvyM+Q75arDqF+FTlXWAv/9fnJCMU9PVMn2tLWqXKlOm6WGY4qtSmaaGXZwBODAaFwCQ0KwAAABetLNss/QYfUFyn+kXNHxn5gWN35x9QZNXp17QzB9qfoQzQs71j5Cr/blyfXpQbkgPyK1a5DzqBOQF/fqZGucEZey/xxxzz8rt40/8DieoY9SRETqo4w7w9//L3wcln+Zky2X+gDygxdbzTkj6qgHqa0NjQc1lttrkhldx7FYlrmlqBKVKsUIDOBAaFwCQ0KwAAABekF/zhPRc1qFBz4IOTXvldTike/4RLR/LlpMzQ3J1RkjudnPkfn9IHnaC8m9/sLYhsNIJyTYtcgoN/X6nE24M7G8KrHyp4Oe3Rb7OwbS1ZLVsL12dolJVc9VSHWo8mn1sq0ey5KT0kNykuXXX3N5Ub6sP3XBDY6narnbUNjTM6ozw4yZ2EQckGhoXAJDQrAAAANGyq2ybFJWu820tWpHU/iRfykOf+Zo6Y3zt3Hzf0Zl5cqoWKldr0eKoF7TA762+0u8Xu+F9KKqd8B4SeyO+2kVPuPBZVdeNi+9Svbc6ks8YsjCt8VP5R/zi6fwj/vx0frvH3OGSqeN8TeVpzgudcENmk47BrMwwe2lUmbHuY48TqI9oXABAQrMCAADUlbKynbJ20yTf6p2TklcXTWrwYuD/mnYaKkdm5sgZaSH5Py1Qbtci/d/qIy1SvlaTNbbVPRgrD2LcuPg+KipK5d1+5zV4dfx5R7w68byLX5943k3d89v83Z8jT+ucDNdxTNSv8/TrZh1PaW0x959Ghj1moL6gcQEACc0KAABwsM1aNdQ3e8vXjXJnP9G000fSxp8rZ6Xnyh+dgPzZDchTjmlShCRfzXbDj3uYYtwuXn6KOGhcHMi49e+mfDjnhvYfzbzhVx/NuP7SjKD8Rcfzio5niMp3QrJE/7xzXyOj4jtXnQDxisYFACQ0KwAAwE81oWaCDCt8Nalg7aupBatePaTjgEYdTKPCb/amyBXXyZFPtBiZ6IZXD6x3wydu2MXKwRSnjYtvqq6ukqz5jzQZuvCRY96efPmZj46Q3+u4Ojqh2r0yvlaz9u3zscsJH81KEwP1A40LAEhoVgAAgB9jfc166VXk+EbMc1I7Lb7gsHsmyAlurlylRcfjTviEjTz9fqlap4rculhV8V3qQePim9YWLZDgkucajFnxXKtXh5x+TMYwOdfJlrt0np92AvKpE5TZZm8MZTb6jO5cAwcbjQsASGhWAACAH+Lxxx+XfgW3N3xzzhWH3zJRTvJnyzVaaDyphXM/LZrH6Per3PAqALOqInYrAOpZ4+KbVq8eJ7PWfJYyc91nzc5e7WvjD8hZbrbc6gTE1WvwlV6LhTr+LW74pJLYXQPgx6JxAQAJzQoAAPB9zJ/fQz6ZdFHze99KPS59uFymBfJzWiBn6ddpauO+T/r3H+kZ+2K5HjcuvqmgeqwsLxyT3K/wmdQ/zJNWmdlyhpstV+j4O+k1GbvvlBLzKEnsrwnwfdG4AICEZgUAAPh2QZm1+tiGz4869mfdc5v+MjMkD2pRkafF8FIthLfr9xWqyhTFniuME6Rxsd/umt2yrmK5FJYsT7rzvj+l/LmXHJo2TE7SubhKr01fJ7y/iFmFYY5YtecL8BIaFwCQ0KwAAADGjpodsqNykxTv2eRbv3N2A2dQgzadQ8m/7pQjd2kBMdAJF71l7n9WVHirUREpwRoX31RZWSmVVeVSVV0uu8o7JD1b0Cb1ybFtTuo2uvkjbp4M1mu5SBU74caT968lEg+NCwBIaFYAAJDICrWwnSbri6f5/lp0WcPbZsmh6QE5zcmuPYLzRTXXDRe3dmHhdQncuPg2C2q+ljfXnHPYqxPPub5bXvNXnWDtoyQbdL5KXa884gMYNC4AIKFZAQBA4qmoKZEFFUNk7pb0lK/mSouuI+XYTiG5LCMgGVrIDnDDGzvaxUQ8oXHxnUJLuzf7cPp1F/uzUjJ0roaq5TpvO9zwoyQ0MRBbNC4AIKFZAQBA4vjyyy+lYN4bSaFVTzXstETapOXKr9Kz5R4nJG9psTBGvxY64aLVLiTiDY2L7+XrWWmpg+c/eG7fGdfdp9e+n87dTCd8rKo5FcYcq0oDA9FH4wIAEpoVAADUfwsXDpHs+ZnJt3Zq19jpL0enBeSPWpg+rgapBVoolFiFQ7yjcfGDFJauaDRyxU0/f2+K3OYE5BV9X4zVeVznBKVM1Y9mFuIHjQsASGhWAABQfy3YMk76TPlryksjTmrhZsnPM4Jyo5stz2hBMFmLg1VueLNNu2ioD2hc/AjLZEPRx6mvzf7dsR3z5BonJP92grWnyKzX+dy/Mas918DBRuMCABKaFQAA1D9bS1ZLr7GXpDw75pTDOg6TX7oBuUeLz3fUTDe8f0X9L0BpXPxoG8sWyZLto1J7h44/wh+Qy3Que6lRTkg27HuEpP6/fxBbNC4AIKFZAQBA/fLOlF8mPzX66MPSgvJLvfF/RIuAL9TifcdfJsqeBRU69iWdcxve8/y4E9q/MOaEn/0Uz4894Yh/jz6hjWrx8oQTUp3QCcnbStZac1/f7CxZLRuL5zX4x0hpr++dy1VPNUbnd4t+rXAS472EWKBxAQAJzQoAAOKbOSGkpHKrfDzrigadRqe2dXLkN1pQdtOb/xy1VpW74QIz7opMUxjvK46rtYgxTRdz4kXlvqJmhxOUNcrs0THL2c+sKgnIaP3ad98qk8/17w76KcxJK+pt5erPvs3Nlos65TY6s1Nu6uldQqm/yMhOPf7xnNTWF6xIbdSv/J3k3eVbk5Rvd8VW2VGzw7pm8WTv3r1SXlUqSzfnJ3fNanV4l7wmv9N56KkK1GY3fFxu3L234HE0LgAgoVkBAEB82rOnSDZsnekbWnx/o07T5UgnW/7oD8hTWkxO0Bt/U1CaQt8uCDxsf5PCfJqvRUupjqVEv9+pseVuQMZrLKTfBx1zfGdI3tCvj3bJkat7j291wcsTzgwbf+avexecebYbTPqN/veBbrjZYb3WD2Qejdit1quFapoy+RSofH2dzzTPTk6e3JQe0usQlEszh8vp7mhpfUHR8anri2Y2Wl88M3lX+UbrOsabGRv6prw68cx2T4xs8Xsdt9kDY6LOxU4dfyUrMHDQ0LgAgIRmBQAA8aWqqlwWLRvuy5n9ZGrnfnKkmytXOTnyjBaNk/SGf7MTXw0LU+iafM3Gj0Wa+3b9utoxjyME5FMtXPrqn9/Qr49lBOR3r4w/67Q+064+5YNpV5/Ub+bVR/adfnXLEfOublBT84Y1T13GNDtKf07/A7zmwbQ/f9PU2KiWuuaUlqBMV5+lB8XVwv4ux2yKmiPnfDn39jYLtg5vvmDL8EaLtg5Pqqout/KOFyPX9GzQZ/rV7TJyG12rYzYrW2brfO/aNx+R8wT8MDQuACChWQEAQPyYO7e/jFv5UqNOfeTIx0NylRaLzznmk/+QbHPDS/btAsBjzKfyjilKQrLDDRf7i7VAyfIH5HXVU79PTxsuf+w+t8kxg+fd337Q/PvbDpp3f4sh8+9vsK5osjUn3yZKjYtvU6Xj2O2aRymCslbN9QflS433cHPkMX9Iru6UIyeMWfHS4ePXvd1k5tZhSZH5x4thyzJSP5/zl6P02v1dx/eJa65n+HhdNvDEj0fjAgASmhUAAMSHKZs+SOnxxWFt3NzaUx56a1FeYFYo1D5WEXnT7zFO+PGPMlPIO0FZocZr8d47IyiPpmfLXzvmyG+u6yk/6z3kzy1HLnu6WWDB0w0n1rxizcEPEePGxX8EZa8b3p+j1A0/UrHBPM6j+jnZ8nx6jvy5+7ijTw0t7dI2sLRL45U7Jvoix+J1ZZVF0n/Ofc0eHCG/8OfIwzreYW74CFX2v8CPQ+MCABKaFQAAeNusbV8l9Z9/V6seY9tdmB6SZ0zRrzf08bCngPnE3XzyvkbznKuynBzJ7DxBrn94glzUc93hR05b17fx5LV9G07a0Dd58Oi+snLlSmv8P5ZnGhc2c83Mvht7zHU0qzHUiIyQvKLX9pbXJ51/6ud6vd+ZeldKScVOa1xeVVS2Wcau7pvcf/3tLTOmyIVOQJ7RcU1RxbXNG3segG9H4wIAEpoVAAB4z+KaxfL3nZclfTDtskN6jj3mbH+OdNKidpza5oQ/vfdiIRg+/cOcYmIejwjvufFFl2y59+sZd5y3ZFvuyUsKcw9dVpybvKAo17e6psAa98Hk4cbFN+2fM3NNi3TelunXkf6QPPlItvz+7akXnfj+9MtSXwhcJk/XPG2N0Yt21qyWpbtzUz7YemnbzAK5Wsf0iVrthk+3iRw/cGA0LgAgoVkBAIC37C47TV4YdkyTh0fLqW6O/MsfPkljixv+lN5TDYva/SrCRfceN7xfxST9szk69IFeY489YfPuBW227FrQuGTPFmucdS1OGhcHYq6zWVGzWgu3Ieov/hHyq4ypzVu9PveUlNsePcUXCASs8XpNUc062Vy6oGGvsUce4w/IQzqmsW54XxM278T/RuMCABKaFQAAxN6eqt1yecUlvozFzVI7BeUULfzv0cJ1kN7Ab9nXGPBGwyK8X8P+kzTMUaVmz4oZ5lP1LnmN0zvntThr7c5pTfZUFieX65gixxlNcdy42C+8N4bZ5DMkM3See2UE5UZ/lpyaHkht8dQbzRpsKpwnZXu9/TiJeR8Ulq5s2G1ks4t1LK/oNZnjmGNug7UrTbzxvob30LgAgIRmBQAAsVNSsVU2Fc/1vb7gisZOQI51s+VGLeg+1+JunXUjH1vhZkWwdl+GLZrjAjWoa16zzi8VnHbNayNPa7dg7dee2lSyHjQuIpn5X+Oa90dQHskMygVpY6Xds8WtG27cNde3Zfcqaw68pHDXAvlg7Gmtnx7d/m+a/2An/PiIWalDAwM2GhcAkNCsAAAg+naXb5c5mwO+wYvuMyssjnIDcrn5NFpNdb1zjKQpJms3knRCUqyF5nL9fox+7f3elD/c/v7Uy88NLO3aJHJsXlEPGxf7mZM61uh1GOYPSict7C7WP3d4evQFjRevCyRt377cmgsvWbBleNPnco473x0mT7jm0SKzb0v48ZjIcSKR0bgAgIRmBQAA0VNdXS19P35fBszMaHD/cGnn5Mklbo500xv1XDf8/L8nPnk2e1fo1z36tdAJnwgyKD0kmR9Mv+ryAXPvPaayutwam9fU48bFfhVa2K3Vwj/LCUg3f0CuyBggx32af2PjrSVLPbX6JdKCBYN8j084sf2D+XKH5v+hXiezKanZvNMrTTvEGo0LAEhoVgAAED3jVj3v++29cshDg+Qsf1AeNY9b6E36SjdctHmhaWEKxz2a12b9OlELyve1cLj/tuly/vPLb2hbWLoyKXJMXpUAjYtaeq3KHfMISUjy/CHpqa7tN/OGo0MruzfeXbHNmhevGFwzWL5a173Zk6Nan+0G5EktUqep7S6bd8KgcQEACc0KAADq3uTJb0j/qfc2fGJU4w7+bLnDH5T39eZ8ntrleuNT5vAxpuHTSyZowfCSfr2t94SzTp267v1Dh+16P3lpzVJrXF6WKI2LffavkFmv8tUzbo5c+ensm9tmz320QeTceMnsTV8l+4ONjtX33N3qM7XKCUrFvlU/keNEoqBxAQAJzQoAAOrW5HVv+nqNaNPSGS4X6Y34k1qUTXHCnyx74bl+UxyaRw62uuGjTF/W72/MHH7YcYu2BpquK5rh6UcOvkuCNS72q21gqPV6HfNUt86BBhe8NePyFkPWdfXsaplFW4ckTVoth7rZ8n+a8/P6+zFbr90uxxtNPcQCjQsASGhWAABQV4bJlHWnNXpy1GEnaAH2d70JH+GG9yQwjQIvfJpsluSbfTXMEv1XtEC4zhkhxy7ZktN4U9HCuG1Y7JegjYv9witozPstIMPSg3Jf5shmp9y79LTGb9W8Zc1V7FVJZdVcmbLqnUadR8hJbrbcp3ln7Wvw0bxIRDQuACChWQEAwMFVvbdalm4MJT0zonGrLjlypd5899UCeokb/iQ8pg0Ls/xei8Fqzck8ojJL9e48ssEfe4xp1n7Wxk8alVbs8O3V/CPHFI8SvHGxn7neZs+SFerztBy56fFAow4FK95vWFZVrO/VKmveYqmqukIWL38n6Y3sZodk5qRcovn3U2ud8KqgmP7uIMpoXABAQrMCAICDZ0vxYt/CLYHGaUE5W2++zWkhk1WJG+OGhWGW3atSLWAXuwF5vUuo8VWvjDmlRcHSZ1Mix1Ef0Lj4L+b9Z96HC3ROXsvIlT88XCBtZm8bluy15sV+oxY90aBrdtOf+4OSoe/ZSVrElrHvRQKhcQEACc0KAAAOhhmyemdOSqdhzTukB+U2veEeqDffRa439rEwDQtT9NV+6p6Z5bu3z6TLmg+e8Vi9bFjsR+PCYop+83iQefxitL4XnEdy5RdzNw5uvGbneGv+vGDw5M5Jb4y7rGWPrAbXmSLWCa8U4tGRREDjAgASmhUAAPw0q3eNT5q24YzmvcbIOXrD/bwWy/NdbzQsTKFqjspc7w9KdkZAOvaddu1JQ6beU68bFvvRuPhW5n1hiv916kP/CLn+ubHtDh9T+GHS2Jqx1jx6wbTpDyd/PPPGy/R6fq7F7CrXO8cHo67QuACAhGYFAAA/3LJly+S9z3vIqOU9Gr4x9dxj9eb6b05AvnCCstO6AY++b36ybpbYP9tn6hUX5y7qekhR6bq433Tz+6Jx8b2UmFNu9D3y+APj5NSHlp/VbMX2UdZcesHu8m0p/ef87UwnWzprzp55BAt1hMYFACQ0KwAA+GGKitbLG/2uSrrjJTlMb6ovcALSUwupmY4HCql9ewCUqqXq40dHyM2vTbyiw6biuQmxyuKbvtG4qF1hoN9XOWaTx/Cn9Waj1LIfyPw7s0lklVu/Noqs1vfvcn0f98sIyY2vzTi7Tb/59yWv2jHbmtNY21m2PumruXe3zQzJXZp3vip2wte2Pl0PGDQuACChWQEAwPf356qb5INFFzfMHCzH6k31XeorLZrWut54NKTSMcebBmWMPyjpL48//ey5m0Y0WVe00BpHfTKpZpI8tvUq34C5V6V8Ovuq1A+nXNW075SrmmXmJZ+s8/GJG95rZLNarH+eokapYWqA+vJ/CurfC8pg/fc5rvn3QVmpzDGyxfvsdsN7iJjGSFwW0Doe07zYpflPcPLksUdDcvrrc89tWrhnmTXfsVa0Z50MmPf3wzRXs5fMUM17g+ON3z8cTDQuACChWQEAwPf1J/nX5KTmGSPlAi2UntKb6pnKrLKI9WaBplg2KwgWaz4fdB6Zeu36olmHbCtZlmyPIf4NHvx3eXvcGQ3emnxG81fGnXHoUxOOOezhMXJkpxz5lbo5IygPZAbloYyQPKbXqac/JK/q12fUgzpHN+jf+Y0zQk558pWGP1tfPKv9/zJlXb8jHg/ICfpzztOfcYMTkHQtll/SP7+mf35d9VMj1VIn3CApdMPNDFNMx1UjwzF7ooRkmT8ofbRgvPLZcSe2fOeDX3ru8aJdezbLlzP+fEhmtvxO3/PmOix2w6tprDEhTtG4AICEZgUAAN+tsrpc3lzyp5TM/KQ2WgzfokVrlhZKm9zwPhL2DXd0mIJ4r97Ym+K4UPMZm5HT8GE3p/Hx20qWN4gcQ7ypqCpVJVJeVeKbvmJgUuagw5p0H3PY4d1HHXZkp6yUE9yAXKLX4WEdfw8d/7PqdTVcLVJmn5ES/W+LXhh30u27y7c1VqmqodknoaR8W5J+9ZWUbrNe90CqqivM/gqG+Xcp+36O+XmNjzq1WZNOuY3bdx3Z+KLOeY3vdnJT0tNz5CnN7XM1W/NYpXlsUebxHfN+CV83+3p6xV4n/OhIsSka9c9/Tx8hx76dc3bDyuo91tzEUnnlbnk79/qGnYb5TtRcHcdsimuKXe/PMb4PGhcAkNCsAADgwMrKdsjWosW+fjNvaObmyK+1mOuqxdFM6wY7+vZvvmk2VpyrXn5yZJvLlxWObh45hnixfft2WbtxsWzZvThJpTw3tm1jd4QcnRaUs5xs+T8d4x069/9WH6uBqkDHv9H9rkcEgrLqpYKf3xb5WnXpxZoX5e9LT0ztNe7Ek58bc+JVmcN8d5j3jeYyTHOaplbq97s1/wrTINh3Le3cvcEUjvM1z94ZIfnN21PPbbZzz2JfTc0Wa9yxdaO8MfmE1jrPj7jhTTvN4zv7m0SRY0K8oHEBAAnNCgAAbCXlWyUw8bEG7ufSLj38eMBAvYk2e1nE+rEQc0NvNojcrEY6Q+WRnqFjjp2/ZUTcrbKoqCiVFatH+VZsG9Wg55v3Nb7WlVb+LPmFFsq/Tw/ILfr1OWUK/nw1R21zf8gqlxg0LiJ90v+KpLenXHL4u1MvOfeFcSdfpeNxtcA2+2aMVaaJsUu/Vjje3ezT7NuxRb9+pr8HV70+Qw5fXnhr8s6yNdZYY6l6b5W8Mf6C9prnPzTf4L7fj0rXu/OK/4XGBQAkNCsAAPhvJRWFMmJpx2adc+RcLSjTVL4yexbEuggyr2+K3CXqzYx8uf6lsSccvmDB19YYvGzx4uEyZc3HKaMXv9i8y/vSvktAzssIyq1acD6q3tOxjVOmUWH2i/jx+xZ4oHHxTcsK85P7z/1rm/5zTvhFj3y5XMdojvX8TE1zzOMk4ZNLYt8Yi+CEHx8xjyOZDU3vzcyRU4Ys/Etq8Z5V1hhjaXf5Vt8H0y9vkxaUm3Q+P1HmMZ39j45Y44LH0bgAgIRmBQAA/zGu6tmkoYsebuXmyZV68/yhFj9mw0tTUNo31tFlClpz6sNs1e2ZCa1PC67PbDq/ZqA1Bq9asjbgy1/Sq0mvz9u36zhCzkkPyL3+bOmh8/uFY46TDRea2/WrOR3lpxebHmtc/MdAmbwus2HW4sy2z45N/YU/JH/TfF9WeWqNGz5W12sNDJPPTp1Tc6rKv7vnyfmDl93RpKhi3QHGFzuFpat8702+vuVjw2r3QOmt+S5xzQqlg/F+QnTRuACAhGYFAABhQxc9kdJpbtKJeqP8T71hNhs9/rBHE+qOycHs5zDMH5B/uTmNj5lb2D9uTgxZvX1C8uD5Dx728qjTTnWz5Ca/Fr5aVH6hczzPDa+qMA2Zg3+UqGcbF/+xYMv7SVlLnmj+wFA5NiNbrtC8M3UehqoVTriBcXDn5Kcxm8Hucc0jLgF5t9NoueijKTc2LSnfbo0rljYVLZU3xt/Y5KFhcqb+vjyl87jEvL8OMB54GY0LAEhoVgAAUCNDlmc2TM9pcoYW1a+64f0UzAZ/XigazeqDteqd9KD8/u7B0nrmxkFJkfl7TXlVibw2+7rUvjOuO+rVgrMudIKS7g/JAP061Qk3K+r+uNA4aFwYZZW7ZPr6Ib43Nj3W6LqZ0jYzS87XeXrINDB0HCvc79qANPrCG8MGa0/V+dSfJZe/PeUPLSPHFGsbdy2TRzb8KeX2yXKskyOddS5XHvTGGOoWjQsASGhWAAASWd6c3r4XQ+e07DKy2UVa2PRRW926Lqi/H/PptrlxX6ZF7MuPZ8vZBavfbrRi+7TajQgjx+ElH0+5KfXlCWeemBaSGzX3992AzNjXfDErCPbPbd3Pb5w0LvbbVrNNFpVNk3U7pyV/MObilhkBOVnHca8b3px0o47HS4+PmFx26DXN02v8jz5TLm8VOZ5YW1uzVpaVTvO9OOPMNppnhua53mNziO9C4wIAEpoVAIBEU11TLRV7y2XKtreSuhY06ZAekAe0qBmjdrne2FvA5GCK/KmZoSTniSUNjpu0582kyupyayyxZOaxXOfR5DV2XE/f84PaNH8mv80ZmaHkvznh00A26ZyW7isWo9Os+KY4a1x8U1n5Dtm1Z5PvhT1HNHpyUoNjMnJSHJ3L8TquQmU2y6xljTm6TA5ms9i1mTlJnT+YdXn7SvN+qKm0xhNLJZWF0jv72Gb+bMnU98RyN3wqT6znDv8LjQsASGhWAAASSfXeShlZOtB3xnpJTRslp5mNBvXmeJ0b+yJwP5PHTicgQzoHm1wbWtbtkMgxeMH2vStk3O4RvlOWSqPH+ks7ncNLVBc1yQ1vZhr7+YzjxkWk1TunJHcf1ebUzBzpoWOb7OzbxNSNRUPowLarF2+dKSc8WnpXcknlDmsMsfZU/rHNHLNHTFCmq/0boHph7nAgNC4AIKFZAQBIJDO3DUzqOkraOLlylT8k7+oN8nrrhjk2TAFVe3JDp5wG/V8fd9GvB03O9NxeFhs3zpJVW8b4um9q2DRtsBync3i15vxvNUGZFSuR44qdetS4MNYV5cnnsy86rNeYn12tY3vPDcgC/Wr2YvFCAW5e3+xd8nJavpzZf+kDqVNmjZGdO3da44iVkvJt8vL4s1s7Qfmn5jnKDTdbzKadsZ47HAiNCwBIaFYAABJDUBZs+Szp4QI5Um+Ezaeuo11zvGPkzXJsmMKpwgnJRi2qvhg0775z7fxja+PGmTJn+WdJr31xSpOug+UYJyA3ujnyiuY90fXOPP63eta42G/Wxo8bPDmqwylp4UeczAaeZqPMPW7sH3Myr79WvZIekPN++4A0+2JQN195+S5rDLGyrWS5780pF7Vxc2uPoA245uQgs3KFR0e8h8YFACQ0KwAA9d3CLYNl9PIOqT3y5Ti9IXbUQtc7JzWYfQJK1WL15sB5951XXe2dzTcX1yyWvrue87038pImXb6S4zJDco3m+aya4nq1YbFfPW1cGGNWfeIbssg5pEtO89/ptXhNTdMxF7mxX31hVjCscgLyVlq2/M7pK4eGRmX4qqu9s+/Fxt3zkt6beVk7nbO/qiH6PjEbn3phQ158E40LAEhoVgAA6rP5awf6Xhp9/KFueA+GXm74eEn7Jjk2TJFZpMXTJH9IunfqJ2duL16ZHDmGWCksWSXPz7+q0W1T5UgnT67UXHuqcW74E37vF3n1uHGx3+TVHzTq/L7vJH0PmccfstUG/b48xht3mhUMa9XHaUG5pvOn0urTWa4vMvdY2lA8O+nNKX9o2zEgN+hcfa42uOGmS+RYECs0LgAgoVkBAKiPxowZI/6eNyT9O3R8Ozdb/qI3wgNdcxxi5M1x7NTuZ+Ga4yRD8q9/DpMTcqY9k1JevtsaSyy8POHGlLcmX9I6PVsudgPSVfPMdcPFXcUBxuJNCdC4MBYsGuTLX/Fs64ygXOMEa1dfzFGx3iC1qnYlQ0i+1K83pg1v2GrWrDRPNS/WF8/zvTvht6apeXVt8yIoW1yOS/UOGhcAkNCsAADUPzNkwtLjku/vLx38AblfCxKzSmD/Mnr7Bjn6TEFZpHnlpIfkr5kfSfucqU8nlVYUH2As0TWk5h55Y8avmjyWJWf5g/K45miW0pt9C2JdCP9wCdK4MMord/nGLnmucechcoqO+3EdvzndZbcby70bwk2ArU5AsvT7W7oHmrT6aGZHTzUvCncv87097pctMoJyhb7Xv9I8zXGzXvn/RGKjcQEACc0KAEB9sXfvXtleukKeL2iV+tQo+bkbkHQ3/Oy/l4pus6dFsRZJ2WkhudmdJ61G7n7CV1FRao0nWvburZbqvVXSd/w/U5xggw6a342a3yfKPFZT6sZ+34QfJ4EaF0ZFVakUla5PGrLg4bZ6Df+m12+Y2uTEthDfq9fBnDYT0q+3dp7eqFXOXtdn3nOR+cdKSflW6TryhGb+HLlS52uE5mmanPH3fq9vaFwAQEKzAgBQXxTuWi4PTJQW6dlyhRuQPm54PwvvPNoQ3Ne0CMmQjiG54to5TZo+WfOkNY5oKq/aLQPmdkl+cJC00fx+p3m+pMXbPM2xxMrfW0xhaZh9CczGiuY6l+9jvjf7LCx/ftyJt5VWbLbGXd8NXvxok045jc71B+VpvZbL981T5BxG027XHEEalDs7fSRtRxc87amVF0bP6Sc20fm62ayEcmhexB6NCwBIaFYAAOqDtUUzfT2HtWypN7y36M3ucLXNjX2x9k3V5pNcf0iyO+bIFTcvaN6kS00XaxzRUlZWJlNmFPiCS59s8ni2nOoPyCOan/lUfJPrtef8zeMOwdpraY78NKtVdqodbvg0iAWO2TA0KAH9mqXxLP2a4+bIeI3ldcqVO/vPOa/Vqh0Fh+zTbMX2gkbLtxckVVVXWPNSnwyY92Byx0Bqh/SgdNI5WeSEmzqxKsbN6xabQtQJyB1fzvtnq+I9mz3VvCirLJJnx53ZKj1L7jDNi9p8YzdfoHEBAAnNCgBAPJs6daoUzPwi6alRR7dyA3Kr3vCO0ZvdEo8V36ZpscMU1WlZ8qern20c06aFWaY/ZfrrSRfcIYf7w8ebvq45znfDj9R4Zt40r0rH7E0SblAsqS0mA/KuPyjPOTnSS2Nd9M/3poXkyvQcuSAtIOd1VG62XNQpKNfqf/uH/pvuGSF5QosfV/n1596vf+fKx7LlpMlr3m87a+MXrWas+SJ1+aaJniqiD5YPZzzic6cndfDr2HUup7rhYjxW17h2Q1rzCIteg+sGzf9Xi117Nnlq3gtLVvteGX1Ra3+W/E3fXwWq1I3lPiGJjMYFACQ0KwAA8WuiPNfngpR7XpOj/Nnydy3MxrrhT+Xtm+DYMUWPKdZGPJ4j138x877mPXr0OMBYomfCyjca9R4iJ2pO/1Km0WNWp5jHLSJzjwVT3O7Wa7lGc5upXz/QP6e7WXJ3xjC5tMuncswnk289dNjStBbDF6U1H74grcmgRWkNBy9NSxm0IC3ZyJqflhJckNYoM7fBifrvP3bDp7dsV9v0Z65SY/1B6esG5FX9vlvaULnqhdxzThy98sUjxq1+sem2kiWeKqZ/quyyR5IyPpMjnYD80zWrakIx3YCyWue8UH3VKUeuGLby/qYlldusnGNpU9EC39vj/9DWH5CHdL5m7CugaV5EG40LAEhoVgAA4tHkyZOld78LG/WeIGfqTW5XLYSmKW81LcKPONRuTPhwrlw/YPFjzfdU7rLGEk1j1rzUpGuwye90rt7T3Ba54b0gvFCUmcaJaaDMUwP8w+WfmUPkytv7yMn3PHl607HLXm5YsOTl5AnTXvYVFa21xnUgXcY0O8oJSf9vvIYZpynYzWvtMZ+m63/frCbq9wP9QXlNi6Q7+s649vQR8x8/fPqstKTInxmPzMavXw1JT/rDI9I2PSi36TgHOeboz9g9SmVWIJnmyWcZY+TCr0vubFBZU2blHUvri+dIn4l/PCIjSx7XXOcq7+yVkyhoXABAQrMCABBvZtfMlpum/6rRPe/IBU5A3jefousNrlcK8FqOOT0kvMx8dHqu/Pnrpf6WuyoKrbFEw9dffy293rsl5dPpt7R5YtShN2lO+Y43nt83r2+aCJt1rsb7A/JCx4Bcm7f8mVNnrRvQZO6aAb7RCwbI+PHjrTF9HwdoXEQym6UaZhVAlRPekHGhfg1kBKRrzxHy209m3nLE2wtvSXmp5iXr58eTHTt2yIjcAb6v5tx3mD9brtExfu6a/Uxit/LCNPUK9ff33czpcvprk+/wXJNo8855vnfG/a69P0scna8lbniflchxoK7QuACAhGYFACCebK9ZKc8XndronnFykRacX+oN7g43dsXXtzHF8B41xQ3IXcMWdjxsd8W2mDx+sGRJtnR+s0Pjf30u52gR0EULsOlueJPGyJyjKdywCMpmNUrnqUfHgFwyaMFj7VZsH9+grLLYGseP8T0aFwdicjOfrm/Vf2vm6rn0PPld2sRWbScuvyClpuYz63XiSXHZJl//hXc3d3LlUp37D3V8G91Y/f6EVySZeX7zkRHJJ70y8faY/I58l627lvneGX/+ERlB6aS5rnRjNVeJiMYFACQ0KwAA8cI8ZvH8+HaNMkbLb/whGWKaA27sVw1EMsWYKcqXugFxBs/7V9s9B6kQ/yGWLVsmF/6+g++ZoYcd4gyX3/uD8onmtsENr3CI5ZyZT61Ns2mS6pE2TM5/K/e6Q7aXrk4+WA2L/X5k4+KbTJFqNgedoNeyW5c8+XX3/BaHXHRzhyTzqFLk68WL0sqd8uGMW1L1PfFrHd+HTnjPi1i9J0yTb5vO8YsZOSnHDpz/F881L27cc4XvvrFypM6X2RB2veutjX/rLxoXAJDQrAAAeN3Wmq1y9v+d5Msc7jtEb2SvcoISdGL3fP53Mnlpfms6hRr2GjL/oaP27t1rjaeubS5aJt1ekoaax7H+bLlz33yZvTZMcRqLArV2hYUTPllliuby0jP57X772qQLUs0JJ3U1RwehcRHOPbwyoFh/ljnK81FnuJx+4kZpNG/PxDrLva6ZvPvNvD3FDaX8Sq/JZ/uaF7EqyE3zYqvm8YJ+f8qABbel7KkpsnKOlb01e+XJ/Et96SHfSZrj67XNC4/+/6deoXEBAAnNCgCAl23fvlz+VHhe0sPjpbUWDTebG1k3vJTfvtGNvWrH7NeQI2++s+C3p0aOJRp27Jgt9w9tnpoZlHM1n6dc87hKSHYfINdoqN0M0wmfEmL2jvjkubEn3fbapPOOLKkorPNP1g9S4+KbzPtuhT8o7/jz5OIuI6Xl2u2T63wcdemzObc1dkPJf9B5GuyGT1+JRWPLMA2/pU5AOmVOk2NGlnXz3J4Xr028tGF6QC7R/weZR9RiuUolMdC4AICEZgUAwMsGjbw72T9UfqaF1e0qz/XaySH/YT6t3qI59us8pumZo2q6WWOpa6u3jvN9HOzQpHNQLtAi8B3XbFoauybP/r0izJzkai6PvTL+rHPW7JzSODLvulIHjYuw8IkYX/kDcsfToRZHLt6alxz52vHks9m3NXNy5FYdV74qcWNTkJvXLFVj3By54+M5N7faVrbcyjWWKqrK5K0pfzxUf7fu0PeV2ZvFNARjMVeJgcYFACQ0KwAAXjZgwd3NtJC5rXaZfuxWDvwvpmlhitkvO+clXxhY+nTUC9nl23N9vUedYoqqS3W+PnDMcZexfRa/zDFHmwbl/RcLTr1h+IJHW6/eNi6qn6LXWeMirFjHVuAPSMcn8488cf6WYSmRrx8vKrUg7z//r211PP9S09zw3jGR440G8341m3V+np4rf+g359bm20pWWPnG0pqNi3zXdZOjnBzJ1DwXOeE9YyLHgYOBxgUAJDQrAABe9tWcu1vrzeuTeiNrjm703KebTjgn01DJUzc8/VFqk8gx1LVlhaHk1yed3k5f/0YnKJ9rTlsj84wiU3yaT84nax4d/z3mhLMXbclqFplzNNRx48IwJ8fM1q9dXhh3/MkLtnwdt82LjbsWJHUMykn+kDyv7yGziWvkWKOldo8Yf1Be6hiQX8zfPMJTc7p64yLfVZ2kjZMjD2uus53YrWiq/2hcAEBCswIA4GVfzr67hRuQ+/VGdrEbu80Dv5UpXNRcLfg6PjxOjpg2t09U9zxYWjgyuffEXxyrN/cPaD5mE87Cfc0UK9coMKepmJUe5pGee5+beUS7JdtGxazwjELjwjDNizn6tdvL4084deGWwTEb749VXl0qb8+76pC0gFxs9u9wzDG19jijpVrfO+s0h5c7ZctpCzeNiPrqpW9TWV0mfaZf1Tw9KNfqNR+iuW6vzdceAw4GGhcAkNCsAAB42aD5d6fojesv9UY24Hrv001zUsZKJyDPpeXLqRM2f5hStbfCGkNdWVs4MfnlUScc7+ZIZ83FLPEvdmPXtKjQImOFzsf76dly3VNDGrdeXzotqk2cSFFqXJjNR80Kk1mq8wvjjz5+6baAZ4rt76NPwWUt03NrV+t8ptdwdQwffzDv3WLNY3haUK4ZsdDfvKS80Mo3Vl6Z9MdUnZvLNcev3diewpIYaFwAQEKzAgDgZbvLt8g7ky5q7wbkBb2JNZ9w2je4sbNLi6wvH82VX0/Y8EHDyupyK/+6snnXwqTuo9oer6/f3c2pXY1S7sayaWFWxATlmYxsOefOr6Xphp1zrJyjLUqNi9qTU1SJvtZk/fpAr+zWbddsHW/l40UfzvhDy4yQ72+a+2gntisIwpu5BmWOP1sey5wr7adWvmvlGyufhP7YwMlOulBzHKh27Ms3cgw4mGhcAEBCswIA4HUD5t2akpGTfLEW6WY/Ae8UDEHZ6QTknX8MlhNmbBhh5V1XNu9enOwPJZ+i89F7334EVW5s5mXvvuJinpMjbueCQ4761Y62yfOr58nevXutvKMtSo0LY695PEftcs3jOlly/akbkpsvqV5k5eQF5ZW75L49d/hum5LSTt8/D+v1m+/GtvFlVOn8rdT3UQ//0NTjArN6Je2tqbZyj7aSip3Se8FlDdLz5DydK/NeiuWqpsRC4wIAEpoVAIB48OzYnx+lhcNHbnhZvn2TGxulemMdyhghVy7cNCI1Mue6sLlmrrg5jY7Z17TY7Mbu5BBTvJWZT8gzRonzxMz2R87cMcTKN5ai2LjYz8yJWbXQ3x+Si+dsHJhavbfKyiuWdlVskUEL723UKSQn6rVzNFfTtIjVoyH7mcdtNvlz5MWuYw45MX/lkzF9xGi/9evXS6/Qn1IeHSZnOgF5S3/ftrk0LaKHxgUAJDQrAADxYMC8hxtl5qTcrDeya5VXigezkaDJJyN3VddWZVU7rbwPttcLT/JpkXelFlFLal/fzik6TFERkjk9RrVN/3TVn342t+YLK9dYi0HjwjDvTXOqy/tulpw9f/PXntnvonjPRt/Xi/91SHqeXKjz8qzmuMgNP+YTs9+n/StV1JddRzc/e9j67lE9Mve7vPJ+96Sbn5NjNc8e+n5f5cby9y0R0bgAgIRmBQAgXnQdecipWrBn682sZzbpdMzz7kF5r8t4+fmG3bPqvOgavfIpX2Yw5Qp97aVu7ApOc3rI/CdHtvJPXPPWEZE5ekWMGheGWUGwSnXpPrJxmzlzPrdyi6bSmlLps+d13+A5D7TS3K7TvD7Vr2vd8CNGkblHleZSrr/TUzNzG9wyZuXTjSNzj5XNJfOS+sy8sn16SB5yw0feeub/OQmDxgUAJDQrAADxYuTyXs200HnMDS/Hj1XR/l8ccxxqUKZn5spNG4rvTq2p2W3lfbB1y2lyjr52rtoTmU8UmMcKlnTOaeJOWdenfWRuXhLDxoV5X5hjUsf6A3Jt5qDWTT6o+cDKL1r6zk1LunK2tHaz5DYtBLOc8Ca3Xlg9UKlztFDnyD9yRa82kXnHyubdi3wfzryibUae/FPnaqIbm98z0LgAgIRmBQAgXuypLPZljpTfaLEzzvFG4bXfRtXlk6nSdk/lVivvg63HsCat9fWecMMNnMhc6tpac5LJ9PWferppYcSycbGPOXXmi0dGyq+6rbgiJTK/aAjOSkt+NCvJnMpjTg7J1UJwl0cetTKrdpY6Aek2avmzR1VVR+8Y4e+yo3SN752Jl7bWubpL8xuvyg6QO6KBxgUAJDQrAADxYs+eYun6lrTWYvAJtdu60Y0ds2FoVkZQfnXVdZfU+eMiizeMSNGbefPp+Qo3yptz6ryP1aLu7IqqUisvr/FA48Iwp750f2rGYe0Kap63cqxLgXmPNeia3fg4nYNH3PDKAa9sbFvlmj0jgtJzzIoXjyuv3F3nvzPfR1llsbwy8dxD3YD8RXMc63pnvhITjQsASGhWAADixd691bJ4XaCBazanDMg060Y3dswn2Eu1QPxrWii1zp/TL6nY7nOz5Zd6Uz9YRXUZuxOUOf4cua6iqtQTJz98F480LszeCAVuntw0YMm9TSNzrCvBVWkNu45KNe+RHnrN5u3LIzK3WKg9QUS/vp2eL2cu3p4bk5UoB/LiyJ831/m6TXMb7YabFl5YmZK4aFwAQEKzAgAQT7YWL5Znhh/S3gmfirDLutmNnWItED/rGmp0VGlNoZX3wbS7fIf8c2jLFulBcfV1t7lRXPqvYzSPP7yys/SIhpF5eY1HGhfm2pTonA3snJN8/uiVPerslJE9NXtke9UWGT6/YzM3mHS5Pyhf6HtjY7RX5XwLMw8mj0InIP0fHSkXj9v4XiMvHBdbVrFTeo45tUV6ttyhczXBDe9pEbXfKXwLGhcAkNCsAADEm8Xbchv5c+RqLUonud7a62JBeo5c0XvXCXW+9H1D0ZyGWmhd7ZpHAKJZmJrXCkpW95xWJ0Tm5DUeaVwY5vqs9oek28D59x9RUr7NyvWnKq/aLZ8Wv5T0m4VymD9b/qTjHmGaTNFsav0P5n1TpLLTsuX6axe3az60Zqg1jmjbUbrK907Bua0zsuV2za3AZSNO76BxAQAJzQoAQLxZu3OmvFBwZgctzl7QG9tC64Y3dnZoTq90G9u+xfia8VbeB9P2kpW+18eed4yO/2193WhuIGgK4VXdcpvfvbxwdJ03aH4KDzUujHLNZWJmQG6duub9g/rISEVVmYxd9VKDzFzp4A/KHfpaWfpaRY63Vg2YVSf5/iz5a5fso1oVrO5vjSPatu5amPTh5Evb6DX5q/4ejVLsaeElNC4AIKFZAQCIR5O39E1NHy3X6I2tWXVRZd30xobZdHDi4yPl/PR1v7VyPtgWbc1unhmS+7VAXX6AXOpSiRbIb7xccEbbyJy8xGONC/OYzU5/SPp+NucvZ2wvXX3QHhkZu/zZVP3ZZ+o18at807RwvbUSyaxiKHAC8vde2Ue1mbzks5jvj7KxaG5S38mXt8sIyp2mOFbFrrcaPaBxAQAJzQoAQDwatqev3DxPjnVz5FU3NseCfpstnQPSeVDBb+v8RnvupuzkR0bIOVqoDtEb/GhuvljboHmmoM0fZ9V8ZOXlFV5rXOicVTtBWeoPSvoXU287fFfZRivnH2r0sucb6fvtQv35vdVcc9qOx1Za7NF8pviz5Z5ng+3azFvzhQeaFgt870y4vK2bLX+rbVqEGz1emjMYNC4AIKFZAQCIR0trlsrLS29skhGQ601hpCqtG98Y0DwqtHgc/u7k354WmfPBtq1krXwy8+7DM0PSSW/w10fmUof26uttzBgl7kfrrmoRmZdXeK5xEWZWHwQ7ZcmlG4vmNIjM+ft6o+YNeXPpXaldQ00u1Pfbx/oz16py11sFuBnrDL0GD2eEmrddtH5ozJsW23ev9PUZf2kr88iKvofzXO+tTsF+NC4AIKFZAQCIV2NKnvZ1niHHaGH0nNph3fjGgBP+VH1dt5EtHwst61Xne0Dkr3g/5cHhcpGOf6wb3UdmSt0cGfbBzKt+HZmTV3i0cWEaC1vUy29OOP/oPZXFVt7/y5SaN+XRlW2aPjJKLtH32ifKrDgyxbeXmhamiTJHOV0K5OhFW/Ni3rQo3VMo7wZ+1aJ2I86Q5LvhU4m8NGf4JhoXAJDQrAAAxKuSmq0yYM5tjTKz5Rot3maoaBbuB6Q57FWlpmD+fPZfTo7M+WAzR6MOXPjQkfp6z7vmaNQD5FQnzFwHZWGnvKb3ZC3r1iQyLy/waOPCqNS5m+kPyO0lFdtTIvP+LtM3fCA9xh56mJMr1+rYvlY7He+tGDCrn5Y4AXmi42g5bumOnOS9e6utsURb9wEnpWaMkJvc8OkhZkNbmhZeRuMCABKaFQCAePbRzI6+x0IppnB/2glvsGffAEefKYg2Pp2f8ujktd1+UGH6Ywyc2z3pwWFyib7mdDdaRaw5ZtNsNhmUT6/JSDnr+Rd7WXnFmocbF2buzCkbX3Yf1er0soqdVu6RqvZWyozl/ZK7DWp4nP7bx/TfjnfMSR36s4wDvEYsmHFVqKX6fc9uoSY/X7o1LyXWTYuyymIZHjipQUaW3KjzNt0NHx/slTnDt6FxAQAJzQoAQLz7cME1Dfwh+b0WJeZxiegU7v/bLi0oPx8w754zSiq2WjkfTFOmvCnPfH3oMW6OvGw+gXejV5SZDUFn6rzfNWjpg4eU1hRaucWShxsXhmk4bHGypfNLeUcfsmnXcit/Y2/NXplfPUembejXMC1ffqFz/ZwWcytcj+zp8g3mPVfbtNAcez09rt3PFxaOqPOm3XfZULNBVpTM8T016awWaUG5Wed75gHyhlfRuACAhGYFACDe5dc8IV0Lmh+uN7td3fDz/vZNcJSZ5ftqRadceeCDNQ8021jz00+Q+C5DF9/bIDNHrtbXnO1Gr3lTrfO9Vb3faY6cMa3sgzrf0+OH8HjjwijTuctJGyG/6zn60gMWZktWhOT0tdK48wg52x+Q3jqedftWDET+rFgzj7+sVm8+k3/0L2du/OpHbzx6MGzfvkLS196QdOM4aZtuTg8JyWQ3eg09HAw0LgAgoVkBAKgPsuaf1aBTQC7WG92Rrgc+jd63hL/IrLq4eraclVcyqE43J5ywqJ+vR+6Rx+vrvapKIvOpM+HiYoqTI3cNmH9Xy6KytVZusRIHjQszf9ucgDz/79EnH7dkW/5/vUdmbRzke/r95i3d7NpNON/WsWy0/r03mEbKWh3Lu8/lH3PRzHX9Y7rnyfbS5fLF2FsbuF/IUekhuU/nbYIb3iw0Mm94GY0LAEhoVgAA6od35MncJq31RreLFiprTePAuhGOPrNZ6EItOu+fu+nWFjU1dVvUvzv1ilR/UG7Yt+oiWuM3Retmfc13MnPkjCXbgjF9POCb4qRxYY7PnajX7XZn9hktcmtya3OfseGz5Cfy2v/MyZJb9L8PdM3Klsh/6w3mPW4aKu/0HPuzC+ds/LJx5HWIpsJdq6XvhJtTtdg9Va/942qiw0ac8YnGBQAkNCsAAPXFb/98eIoWzxdpoTdCmWLFvhmOLlMsmT0nPn93spxVWDI5OTLng+m+zlf47v9UjtVC7RV9zd0HyKeu7FFT1F39xl/esqhknZVbLMRF4yK8MqdQfXDPWDn7/Y2dUqas+yTl6fyjTvQH5FF9H4/Sv+OVTWf/W7D28ZD1qu9T+S3Pn791aGrkNYimkopt8tH0axp3HCJn6Xx2VdOc8OojmhbxiMYFACQ0KwAA9UXeyJCkD5E2bo6k6Q3vEif8abB9Qxxd5rEVs+rioafyz29RvGeblffBMm3aNOmSfXSqvtZ1apobvb0QTGFoVgS83zlLztpcPK9OGzTfV7w0LkwDQK/XXPXIM2OOPeqp/A4/17y76Z9nebjwNkXlSs3xvcwc+c2K7fkNI+c/mqr3Vslbky9umhGQ/6vdwDS86qjU9ebc4fugcQEACc0KAEB9YY5dXLQpmJKRLedqwfepKrJuhqPPFE7mE/MvHwvJ2TvL1tfpBpZbdi+V7jmHdNAb/t6q8AD51BVzwshsfc37ek49/lBzBGVkbtEWJ42L/UfLFmuuWf6QPOoPygv6/UI3vC+DFwvvCs1vkXo+M1d+fXShxHSlhfHhjN82doJymROQD/XrSje8CsiLc4fvi8YFACQ0KwAA9cnWohXy2KdNWjrZ8jctrKa63tiUz6y6WKb5OL2GtmgRmfPBljnzyIbpAbncCW9UahoKkfnUBfPIwy59zaEZuXLBzrL2MV91ETeNCyMoVTp32zXfpWqTE75uXiu8TT7mJJTZmmv3zGw5benWJg2L9i605j5aKqpK5I3JFzXJCPkuM+89zW2bmct9uUbm7yV7Nd9qx1z38AlEXs83+mhcAEBCswIAUN+sKR6T9Mx4OV5vel/UG+BNrjeKghItUrIzg76LtpYuqdMTRvZU7pZHsuVn/qB01ddd6UbpkRFTfKk1+nrdumQ1aVtYuszKLZriqnHhdcHaQrvEMceKBiT98VFy4owtP2tQUzPLmvdoKSrbKO9M+f0h/oBc4wRkmBPe18ULv+v/i8mxSOdzmuaerXnPNk2/ffHIv5u4aFwAQEKzAgBQ/8yW6et/0UQL92u1IBjlmo06zXL8yBvj6KrSHNZrsdLzmUkdWts5HzzlVaXyZP6FDd0c+Y2O/yt93Whu7lihrzdFXfPG5FMaROYWTTQuDo7ahpRpWgRlvD9HHvzXWDnmTxtPThlbM9aa82jYULNBJpeGkt6ffN1haVlygxPejNcLj4V9H+HNWIMyTH9H7tT/R52fHpS/6Z8HueEma7RWSHkfjQsASGhWAADqoxXbJ/pemnhue39IuujN7yo3vHzcvjmOrj1aqIx/YtShl83fNLxOi/q1exbJn2dIGx3/Qzr2ea45AcLOp66Yk1Te+fe4dsfM3Rmo09Ul34XGxcGhc1im76MCN1f+8dzUY9v32np3ck5NjjXf0bBhwwbxZ/8j+YZZcoQWtH/Rgj/ohpsWsW5Mfl/mcaD+j2fLlb3GnHrYl/PuTrnv9eOa/utz+Y3+t+d0PNPVbh4dERoXAJDgrAAA1Fef7Hi+4V8myQVaCAxUXliKbTZhLHQD8tJr4zscU1PzlZXzwbK1Zqt0KflrSsYMOUNf92193S21r2/nVBeq9fWWa7H7SNqs41oOqRli5RcNNC5+MvN+2WMeD/FnyZ3PDerQZt7OATFrRBnTF+Sn/KmrnOgE5BF9j411w7/XUXkU6icyOW7XvD//V75ccufik5tM3zCidkxfffWVfDmuW8rTnx16VFpAbjOrL3TOV7vhDUYjf07ioHEBAAnNCgBAfTWrZpY8O/93zTOy5U4tBha73ihwzCaMU58cJbdOWHNL08icD6aimnUycP3fm/tDcqsWQgVONAuhYO0jI3kP5sklvVfcFZNil8bFT2D2RTFNgaAUuMHkuyeterflokVDrTmOnnLZVX5fyoczrjnHzZHn9brOc81GodFrxv0U5ndhjeb8YfdAiwtHbXw3NVQTssY4d25/Gb3ipcadc+RXbkBc1zzmFqptOJrVUvEwzoOLxgUAJDQrAAD12Zbieb43J1x4vBOQd/eturBvkKPLPONe5A/Kx91HtTu9YPW7dXo86s6ytUn95955tI79CbXSMXtt2DnVBVNobdMC7PU3cn52/MqVH1m51TUaFz+OeY844dM5st0suWPG+v6HRs5ttL2Xd3PKu9Pl15rbJ5rbZidczFu5e4l53EOV6vdzNOdntQA/d8nmnIaRY/umqupyWbx1RFLOwu5t3GFyuV6Dl9Us15zYY65LIjUwaFwAQEKzAgBQ320vWZnyUsHpv9biYaJ1cxwblZrLXCcg9z/9RevDZs7sZ+V8MIWW9WyQFhQzfrMEPZonL5gVLqs7ByVz1OI2rWtqvrByq0s0Ln6USp2ztfpe+SgjIFfO2vBFi6rqSmtuoyWr5kF5ds0Zqf7s5PO1iDUbzZojd6P1/v0pTNPC7FUxTr9/qMsIOX7J1mCDvXv3WmM8kLKKItmwc1bDr+fed6yO+U79GZ/pzzKNR7NqKh7G/9PRuACAhGYFACARvDvv4hZOru9RLXp2eqDwMa9fojflAX+W/CFvaa/U6v9n7z7Ao6jWPoC/u6kEQgtNI1JEAQVBQQE7Kortgl3ED8WCqCglO5MCiFQBAREFRUSEXEEB6cnuppAEQq+hBkgIhBDSCJAKKez3nkxy1Z2glOxmN/O/z/N7NjmS3XPOzOyd951TLtsuOCwqKaBVhwfXDwxzeY8/d68kpnGo62QrF7mdG0eaqc/WkzNrlV4uUdXPVpC4uDrlIwPEOSkSavF+Zho/PMKt864zv9n0vPwnJaVFtOTEEBdps9tNfhHUl+u3kutWIFf/tftvRF+Wshyua6S/2e2NMXNrNTyWZNZdz7lfVJKv+377O+5+xlrt/E26T/j91/L7psp/JjAcvT+uHxIXAACapioAANCKCeG+N0tGWsABkP3WergyMRrhDJsWFEG37UufobdYClR1rkr/3fefJvx5o7n9Z+w55LwsiDPT7xyEPLL11PeexaWFqrrZAhIXV6c80M7nn/eMiqg7fOTx22/aaPlV1Z/2Ulh8nlbs/dRTWlu2sKzMddsiKetZqOruYJTkj7ns+lr9eUT9F3ec+rmOdfuu1087n/GYsvG2LnwdjeTPiZDF94fyXSa+S+x2PdsNEhcAAJqmKgAA0IqlS1/Vc9Dem+2SHWOO/CW2Qwqnt0MTqH5+0UZVnatSZOJIl5GR3l25/X/YMxAsf6KfIRnpx6Bw6rol+Qf34tJLqvpVNSQuropYNyGTRY5ZTx9FJb3dzLof7eWSJZcSiyJ1a48a6hhM9IAk1ncw02FJ2dnE4QPz8nrGc71nfxHZ5MlNyXO8rdt4oy6V5NO8nT2bfL25cy++nr7iwD5GrkhgOP5olGuDxAUAgKapCgAAtOQ/+6gpBxYyS3SQYOgC12PxcBPdn3h2pKuFgzfrOlelkITRtYPCPftwQLBVtm/yRiwKmsjGDQul28ISZtt0UVIBiYt/JXa7SOJrYYEcTi/NT2zW2GKZq+pHexCJLHPGJJegI9RYjqRektjC10xJsvPsqFHI/bjDYCL/Uesbd45N+M7Tuo1V6cyF/W5L9j7QauYmepE/d6Yk1u8RC6qKY6qum3NC4gIAQNNUBQAAWuJfMMRlqJE6cYDxi6RMYVDfMNtXiQge+XXMqsN0c2FxkqrOVc1gblqfP3M4O1FJfWxFBJ9ilMd27vsPP1nr3si6XlUNiYvKcZB7mRVy3xzi1ymjTNQ99LiP9y7LfFUf2osxYbzrZ9HUWjaWLUS5hOt2SrZvYu16iWkaYhHOTVIIDRoaUtd3Q8oPrtbts42dlJAV6DUj5p47DCH0Fh/LH2VlBxLxvWav3YNsB4kLAABNUxUAAGhJYfEpWnmI6kqh9BoHGxtkO06ZuCJxg26mbQEm6pudn/SP2yVWhcjjP+mCIuhODnTm8WefU9XHdkTyIof7PTzApH8lLGF0beu6VSUkLiphUrY6ZRvlMAocsZo6bEmaxufcYlX/2cuqpC9cDGbXtpKydoPYhUOMHHD8wNtUlnQUW7OGsndGHdM3jTmxSNU+WzuWHq2fuaxDPf+V1Im/1wZzXZaxo7KybolIrKjr7gyQuAAA0DRVAQCAthRQWtFU3dfxdAvfFPtxsHRErv4gSQT0F7g+v/6444mOtt5+8vLlUtqRMs9TBATc/j9k+448EW0VO7uEjIzwesZ0zN9myQskLlREoJ3CgiUjvRm0mVrFnvzWTezgYd139vD111/T1KUveAVE1enIx2kS109ciyKR6AzBtphmk8Dn8c9c9z7vrqLGuwoX6azbaC+nTm2lQ6dXu/otqduIr+sHDaFk4PqtKz/eYvqIM0y3+TskLgAANE1VAACgNcWWPNpyeqq7tJbu58AjmG+Sz6tumu1PBGvpfKP+1ZztT9S1rnNVO3kqiTo+TXU5KHjJYC5b4M+eO62IxTrF2h4rR0XV7m06HuhlXb+qgMSFQlL6WxxfkRj4ZriJHvL/kepvi/9OX1Rq251s/slP699uOGwF/YfP+Z+4XsmykkB0hgBbJAIOcL3H+pmoW9APVHf70f/qiqspAfRXp7Li6ED6GrfP1lHT4WvpUa7jBLZJVr7jnCEh9CckLgAANE1VAACgRcUlKygswcV7hJH6yGJrQRMVytW/Kv9lrsOBLyKaPF9SesmmT29LSkroUPI63bRYV7FFrEGMPJHsO/JEBFEX2OoAk0dv4+FRXqWXS1T1vBFIXJAI/sR6Frks3GCkT0YY9W3XxAe65+an8zlwSdVntlZ6uZR2lc6jiQmNbwoK8xzCddwqK9OV7HnuXRfuw1JJCabjuC9HBMa6tHr0fXe3P1YGc19Wf9KigriOci6m0/aUuW4jI9ybGMz6p7ne33K994sElkhkWbfNISFxAQCgaaoCAACtWn/8ZxpurNeIb5I/4hvkw7KYs25982x/Ygj6uhkbO9x/4eIZm++8EZ+5xmVCVEOxvsBXHNCclu37VFaMBMhloX5mesF4bJT3xeKq21UFiQsq4uOayn3wS2CMe/egiNaei/cFqfrJXopLLtKWkz/W8Qul+yQjfcn1Oi47zygLkbQ4xyKCIujd0evrNF0d/5WqjY7IeHSsfuhvtX0CVlGf8qktSbKyFbNj9zsSFwAAmqYqAADQspiU2a6fRze+m2+Uf2BnZUe4mTfRBYOJZs/a9kDLrPyjqjpXtb1nfnMdv8G3kxRGszmoOSMryQu79EP5NIZc/nmdHEbPhR8f611YfEFVx+uhxcRFeX+KtSxy2UYpnAK+2/1Q+1WWgar+sZetW7fS0cxo/daT8xr7h9CbHDyvYOmyfZNk10tcB2Vrg3Cd542JqfXkiiOP1LNYJqja6chGjRpFixY9ovtx0yMtA5bTIG5PCDtdlhxQ2miX6/2aIHEBAKBpqgIAAK3bnPytx/ioxo/IykKVYiV+9U20PYnF9Ey0l2/YBy7Y/WS99Lz9qjpXtR/ODHP7YCPdx0HvTxygZYhh8ap62ZaYzrBWihTJiy/qxpX894anymgscSECz1Jub74kdpQw0qIftz/x/OLDb9YtLr2k6ht7iTsTRo+83rjWZ2upnV8ofcrn9TbZvuup3AjRp2Kx0AR/I039Ne6V9hsyRrhYt9HZLFrc1+2VCdRjRCiN5Gsuho9JmvznCAzHSWAgcQEAoGmqAgAAsNC8jQ/X5mDvNb5h3sOKVTfR9iWCB7HTR0hgGL0wZ9vTdU6et23yYo1lDU3c1bZWkIkeM5joNw5oxGJ+dg1iJNFmE60TC4YGJVDTDSdm39BUGQ0lLsTaKBdlZVpIGP8+9Oedz92dlZdQjcHeeorPnKwPimjZwM9Evfh8miMr07FEgGxdf0ckEnfnuL6bDUYKWrZv4O1FJfk3nExzBOfOnaNxX8n6n3b1aRIQRs9xG2dwW3eWtVf57rPrdX9FSFwAAGiaqgAAACx08NRy3ecmn+YcYH0p23+tBxVJeXqeyTfuC4eGUPetyQvdretc1VJTQ+nLqJb1ONB8kfshSlamcNi7H8RnRsth9FlAWO3bY45Nc7Ou59XSSOJCrBFxns+TnWx6wDp6ZtGOFxpn5B2+oaTPjUi3RFFk+j2e02LpNu7/t7heq/h8yiqvq3X9HY0yNUT5DlhiCKM3lx8Y3DzvUma19aetnC04RluSZ3n8uPPxO/zD6B1ur9hh6ZjsKFvSInEBAKBpqgIAAFAcTjO5Bq537cI3y7/IItCy/3SJ/ylfq6CIxXPQN/KbHV1apObF2Tx4OpoVrZu4zqeJn5E+5npskZWpM/Z+AiumEhxiU8dENOg2b1dfz4jEeaq6/psanrgQia0Cfk3k1/9KRhr43db72xxIXVErM+eIqi/sId4STx9l9tV/u61jvdEb6WE+byeyLXwdiZE09j6Hroeooxi5coLN/ngtPfjrvo/q5lw8UyNGWlzJmdx9+gPpK+rOiG3fldsfyG2P5tfqTzQhcQEAoGmqAgAA+NMdWe6eUij15oArjG+aqyNo/yuRvMjnumySwujdKbFtm2QXnFDVuaqdObdX/2mETgT9I7gP9spiGoL9+6GE232GLTKYqPeY8CZNdyUvuqb1BWpi4qI8oSWmW4hpIeGykYLkMOo8a8ud9TLzj9o8sXUlublpND24veugaGppCKXXuG6/8rE7JVXPuXO9xPSsHVz38b/spk5J2e+7XSjMULW1psrIPeQ6NeLmZtwHL3AfLOTXBH4tFOdcJX1le0hcAABomqoAAAD+lHhxP42O0DfhYHkI37Af4sCruNpu3BXis/O4DpHslaCIxnULi3JU9a5qp3L26EdE6tuI0R4cPOyXlVEQdu0H/myxBWV2WRLJSCM+N3t3mDK/mcfJ5Fi6fPmyqs7WalDiomLRRHEuioVTN7OpklHfSzK5ND1XeEqfX5Spar+9lF4uoakbmngFhJIYrSRGWWzlep6TlFEhdj1nroNIBInz7Dxbw0HyWyP3UIvVRf1dLBbbX2eOJu9iOp3J2edhCNXfy31jYFGSmIpkx52G/geJCwAATVMVAADA36Xn7Nd9Gdm4Jd+wj+ZgRgzFr94h00rAcIEtGxFGD4+fXtft9OnTqnpXtZTze/SjTI1b8uf6sd3cDwX2DkTF50nKCIPjbD7/3GdUBDVPyt7gdj4/WVXnv6ohiQvR36L9GUzsAPHl5+ENen9pvtX3VPbOaxqBUtVyL6XT2YITrqMjm7bk6+Qd7utl5fWstilW10icWwXiGjcY6aeAMP2Di7bdWstiGaBqq9ak5+6naZturT9mfcNnuJ8Wycr1Z9/kJRIXAACapioAAAC1k+c2ukzb1LotBzZT+eb5tFyN612UE8mTZK7HlE+XUpsn+3awy7SAxOxol8mxrVrzZw+XxJQVE+XaO3lRTux2kMmfHc0+558fnrimvk/ShVjXDMtBVb0FJ09ciNEKYpj+GUlMCeHzcFxUo+fmbH2g+d7Tv9l8odZ/doqy8mNd5mx7tLFfKD0ohdJkSVmTREy1sG6HIxLnr7ies7neMXxOj5LWUZeFe3pVc786nv1nVtSaGHXL/ZKSxN0lKbvC2Of6R+ICAEDTVAUAAFC5bdlz3Pw3Uze+Wf9dFgsM2uuG/cpE8B5vMJH8VWxz36Rz0XZZNDD+rNFl6sZ2zeUQep/7IoKDmPPVlLwQwabY8UA8/f2D6/CxHEP3zD5zb8NTF35zsVgO/K3ezpi4kMTaHuay5FAS97WRj/WEwHCvpxfve8039uTMWtbHxt6y80/o9qa+WXveTrqL6/cJXxd/iMReNZ0P16NiBEsK+yPATP2DfqeWwdHPuBWXFKraCxbanbrEbWJMyzv5XJwn2fN7EIkLAABNUxUAAEDlki2b6PsT3bzlCHqdb6A3y0rAo77Bti+x08hefv1kWkzbZgeSTXZJXhw8vU4/JbpdM4OZXufPX87OVlI3exGjT8S2qQc4kPqFDf5uG92z/nhvn9Sc/f+bPuFEiQsRCIrjmsX2s9/9TCQHGKnXHwd0vmEJ4z2tj4e9FRado9iT01yX7HnTVzZSX67jt3xN7CtP6FX3aKSrJfpZ7MSyl8+ZmQHh1HvRrt4+5ugR+ry8dFWbwUIp5/boohKm1f1mc9fnDSYyS0r/IXEBAAA2pyoAAIArO5kfq5u1974mUhgN5pvoONkxgjSxZeNmv3X0zuLtdzW0WIyqetvCwYxQ3VebbmvAAfUTstgy1kyZldTNnoolZVHF/WzxCCN9Ond7r+6r4oc1y7mYpneSxIVIhp1gG0QywBBGb/Nx7fbbXmq66fgIj0vFM1XHwd5KSotp2e6BdQPD6H4+7jLXNZKlldfdPkFs1RAjWWLYxwEmumvRnmfrZORVPs0ILJSWs9/th82PtzCEUH8+7uvYOdmei3QicQEAoGmqAgAA+Gcnc7frZu3p2IxvoIfwjXSi6gbb/kTgkCOmEkyKoef3nBljtykESeeiaMr8ZrX8wqgb1+F77o80uXrX/xB9IXbbEP1xVDKSkX8eNW/XU08FRLg8zT+vrORvqpvoryy2g/tuBb8agszUc/gaavPd9he996YsdT1fsJT7O1vV//a2Osngumjviy3kEBrA/buM65sgK9sE2y+ArQJc91Qx5SvARC/Pie7aeP+ZpS4ZeYdU7QVFVt5xt9mbH+jC19M47retsj2niFRA4gIAQNNUBQAA8O/eKHhS91EUNZeNNIFvqtNVN9n2JQKIsuCXA/Pg8ZG33HcgdbXddphITd1N8ZlG95Gh1ImDmhkcXIgRA2L9Det62g33Q9m2llyXi/yaxg5y+Uqu33/ZDpYtV+/uMCVct7NlQaCy+8YkOZR6fbSQbhsa2rxh8rnNrklnN+sy80+q+rs6bLRMoTnx3esGrvd61GCmmVzvgyyvLEllsnMAewMkZUvdY3IYfR4QSh1mLWjrlXnhsKq98Kephx5y/yq64wOSkX7h6yhFqq6RNUhcAABomqoAAAD+XYYlgz413ebiZ6LOHAgt4Zt58dRZfbNtP2XJC65HOvsm8LcGtx85tV5Vb1spvVxCh9NMrp+uoLYcgAdwgLFNVvrE/gHO34kERkUS4zgfq8EcgPWSxM4RJprLZWH8b86wS/x7cVkgXnV1rkgoiQSJSOQUlo9QWMU/z+HXwOFr6bGIo1OanCtMrnOuINk1OzeZsgtSVf1bXQ4c+J1m/HaL2+cxte8yhNEIg4nWl41mUc61quonmys7B5RpRDGykd4/cW5zw/MFyfrc3DRVm0HxkuUlCtpxSyO/cHqZj/vqsv6rzuOOxAUAgKapCgAA4OpcvnyZxkW38ZTC6Tm+mQ+TxZD5an76XB6kZ3CQMWPUSrr9WGa4S+nlUlXdbUH0R0JaOI0x1W/wWQQ9z3VYysRoFBG0V2u/lDHRiWkb278u6ilsPDHDfUKMb/vxMb5vjt/g+1lAhH6keKrM/24n1/sU92NqBVmZApPJzvN7XfgbMdffRFlMJI0q/iaF3+MIC2Mz5XXkP2590yETon3/M269b/OfIvvrK+ohWPdldbpwMYUSs9brR0ZRHb9oasf1H8LtCS0P/MVxrP5jeXXKElaSso1sPB/br0ZHNuzW5ZyvZ/LlZFW7wUIFRTk0ovBD3dMR5DliJXXk4z2R++4oKxL9WUkf2w8SFwAAmqYqAACAq3exJJdmx91dn2/sxYJ10UzsblGtN/hlyQsTB85GmjIimtomZEfYbdqIsNKykj5I7ub1RVTjR7gus7lOB2RHGH1hohPTY+983bq+FRYdecrjm03d2ny7pdvT7M1vt3V7S5i0rcGAgDD6RDbSKO7TGdy3c/7GWDY9ZrQcQp/O2nJ/2d8w8fcvfbe1W4+vN3S7ac5/u7meO3dC9ZmORKzxcCJ7i8u4KK+60hpqbzDSe9xvi/kYnpSrd1rN9RDnmtiZRSSRzPzz0C/X33rb0fQwu14LziInJ4f2HNhCv+4b5vaJkXwlJfH4oyySdtV93VZA4gIAQNNUBQAAcG3OFybr5u16qLEcTm/zDXYUs//CdWoi0DzJQduUMevd2x3KMNo9YNuS/J3HhPAmd3EA9BHXI1xWtkytvie3/5K4uJLDlim6pYderhW86+VGC3e93IK1+ZvdL7f4b9zLjYK3vOwldtyw/ntHl553gPalLXOZtbVT3RFrqZ3BSP1kI/3E/SXWBbmo6kfHJ6YFlW2Py2YOjqGn5Lg2jQ9nrtZbtx0sVFSUTyvXTdQ9+j55jzBRJ+4zma/ZKEmMInKMXZMUSFwAAGiaqgAAAK5dev5h3Y97nmzGN9jiKXUMq/aRF6xEMtMJ9uXI8MZt96Ysc7Wut61tT5ijX31wqI8U5t5HElummihOEos6VkdAdJ2Ji5oqu+A4bU7+2nXB7qfqc//cZTDRG3xsvuHzZTv/Lqa/2P8Y3ZjLXGeRGDvDr6H+Jho6aUOzDj+mDvVYYVmhaj8ozPvGuI1cSL7+YfQi99u33H+H+BwQi9pW9/fX3yFxAQCgaaoCAAC4Pqtz5utf3UPN5fCyNQHE4pQFcvXf/JdwMJpoCKXxYyOb37UrbbGbdb3tIfL41NqBm+ge2ch9Yyobui+GoIvdCazraztIXJQpLM6jX/f56YPjXqwXGE4duF/6c//MksNos6ws7lqtO8JcJ5FkyeG27JfFtrxGeibmeL0m+9J+tXuyzpmYj4zz9ltL93KfjWDrZbGWizIqyrp/qx8SFwAAmqYqAACA65NoSaRZea+4+O+mNlIYBfLN9j7ZMYKAIslE8QYzjZ8Q2+KuXWlL7J68KCkton3ZS1xMx4Ka+kfQc1ynr7hOypN9e42+QOKCQkOH0oKdfesNWUMduE/68zH4jvtlC/8sAtbq2ebyxolrTCTC1vI5/llQNN275eQcL4tltar9oNh8fLrb4j2vNw0w13pVMtMCWdkuuFB25OOPxAUAgKapCgAA4Pqdt5ykHzb/x334GrqTA4Iv+IY7SbZXYH5lYneFS+ywwUTjx0bccldcyh/V8iS6oPicLiwxsFZgON3OQfMAWZk+Ei+LHVnU9a5aGk5cRFvG0g+HH2wweqXn3XwOvC0ZaT73/zaWURYQOnLAeiVihxMTFbBdfG5PMxipd0QCNTlxYa5rcelFVR+AheLifqW5ax+sPy7c5wHut0Dut42SsjuO44+yQeICAEDTVAUAAHBjcgsz6eedj7lJYdRBUnbVyJCrPzBUkhdi5IWRxo8xN2z/WHoL132Wfar629qlklwaWzBC/+wuqicriwF+xK8r+PWUbMsRKhpMXGxJXqAbF92i8aiY2t3lcPqE+2E5nwP7JGVbV8fYpvb6iKRFClvDBgSuo9brj4ypdakkiduNpEVlDmSs8vg8osHt8joaKBtpuawkVR1vLYsrQeICAEDTVAUAAHDjSi+X0C/He7qOjNTdzTfb85iYElHdAYL4/GIOWpO4PtOHhFKnlve5uO9Li1PV39ZKLaVUcrmY/ijtr5u4pZl3UKiuo2SkYVy3VZISUIn1QcRIlarrMw0kLs4XptOFi6ku8RmhXgFhLm0CjHqxKOpEtlFSAn2RvKrafrUvsVuOWPhWjBbxCzS7dV524COv0tJiuny5VNUfWpd7KY2Sz291HR3pcou/Sf8i99nPcsUIJ2c7D5C4AADQNFUBAABUndXxPV1HhVMPvuH+lW++HWV7QfGk/ST7Zmgo3d8608UzzmL/5MVfRUU/qf8mumP9MUbqwn01lOu2lB3ln8WCiyJYvfEAqwYnLs5eTNCdurDd8+O1TX2kUOrGbf2Y2/yjZKbdHKxmSspuG+o+cRLcjlJJJLPEFq1G+sHPSC8O2enRMCZpELY4vYIzeQf0E2PqN/ALp0f8TDSJ+1Esviq2JBbXk6qPHR4SFwAAmqYqAACAqlNSepFWHnrSI8BMD/HN9yJZmTbiCMkLEbyc5mDwZ0MYPfloVos61nW3t4KCMxS5ua/L97u61Je3UFcpnD7kQGUh218efN9Y8qKGJS4uXDxFB9JXuO1PW+EzN+6B2+Vw6iMZaSy3c7WsjFoRIxNEwuLG+q16ibqL9VmS2SqDiT4OWEx3fLvxGc/BlsGqPgELncndo+PzwnvCppZ3+pnoMz4fQljFLj6O8N1zfZC4AADQNFUBAABUrbxL6bQkvq9n4A56mG/AF7J02TECCFGHsxwQrh0T1eD1fWnLGlnXvTqctuyg1eeG6Icfvdv7rSjqIIfSqxyQT5VMtFMkH5jY/cC6Lf+uhiQuCoovUPTJWXWXHXinrb+ZnjAYycDHMJj7Z6skFtt09gD1T2XnJ4tl4wKX0cPzNz3fcF34EP2lS7mqfoFDdOr8LM+5Ox5sE2CmAdxnv/B5caw84Hf+8wGJCwAATVMVAABA1RO7jaxOfq3WxBB6RBbJC1NZ8qJqpkDcGPH5+RzgbJ0Q7fup8bT/TUcsa1X1rw7hlnBadGoyRR2b7BaVMLn5w0foCSmEhnPfLeM672Bpktjq9WrXwnDCxEWkJZK+SfHXrT3irwuN9/dad8S/3fIDg58YbiobjfKrrGxlKqb9XCwLTm90VIoDKFssUlmDYb+YFuK/jPrMj3i8+Ybdk93Onk1Q9ZHW5VrSyZzn77ruyLO3fL+N+srKFrdx3Je55deGqo+dEhIXAACapioAAADbyM09TuYDr3uNiaDHZLFInrKLhiNsQ1ixXepBOYbk6fvatVqa2d/1lGWrqg3V6bfiYN2ulOCGa+M/a8/ByzMGM43lOv/GtnEbMmUxEsNU1p+VB2tOkLgotBTS+5f60y9H+rv8vrO/R+DuTg3fiqZOfkZ6noP4QQYT/SKZaA+35Ti3yfZbyNqXOG7iPDzJ7Vvqb6IBs6I73rEnMbjWmTN7VX2ldbIs028x/V0W7n2+ccA2epqvhy+5/7Zy32XLyrow1v3r3JC4AADQNFUBAADYTu6lk7Qu/sVaY5QFO7/lG/ITsgMkL8RT7vLRC4fZxIANdP+UrXd6p+bsV7WhuuVdyqDE7Cj3hLNRjX7e/bgYFv8Ct2EM9+dPbCP/nMLELi5iJElx2RN80U4HTVzEWqbQ93GPun2/6dHaszY9VO+tbeQ7IoIeF4kKyUijuf5LJPEE3USn+FU8RXf6URVWRHvEWhwZIjBl0miz1z2JZ6PqnLkQp7PuL62bbJlME4496vret171DGvoET5PxvB5sUFSFv916kVY/xESFwAAmqYqAAAA2yooyqBFCU96ymF0LwemYrX/Y7IDJC/kPwPIZPYr1++VcdG+Pnffd5uupKRE1Q5HILZ7zMo/5s68Pwlx8x1hoqe57p/KIpGhzPHfIymJjDQO7vb7m93eCI67zdVikVXvZQ+FlvM0Pec2/ejI27y+XH+bz+To25p9Hu3dgusmAtBP+HUC13UW1zmKiQUVLzCxpocjTCuyBZFYypbESAEzjefroeeRDFP9s/mJLtZ9p3VLLEuoT+Jtrp9u9G44LIJ68Pnix+eLiYP5rPKkY008P/6ExAUAgKapCgAAwPZKLhfRwj1PuEgmfWsOOMRTdTEnXQSo1R18iM8XQ/bzZGX9hCHD11Hr6Zuau+cXZava4UiKSgqpuLRQx/TbTvzoMS6iUatxUY2eHru+UT/Z5PIeB8UjJWWXhScCw/SdA80eHQJNHncGGD1aB4Z5NPl8u4dX5/vbuuReyqhUnvKqr5B3sexV9e8UwS6RiR4ecqhHA/6c5kFGj3Yj+fOCzO4dDRH0kJ+R3pNC6WsOPoO5PkvZBnZGVhJYJZKy/Wd1nwu2Ikb3FPOxSC9fUPTLkRFevXadXtSguKRQd/lyqerYalVmZgZtuxituyfFw31UqGsz7qtHuf9Gcf+JkSlielSJXAPWNbkqSFwAAGiaqgAAAOxnxronXQI2k0heiFECsZKyhaWjBCIX2X42jT06NvrO+mcLdusslmRVOxzdrMgXXeVQfQfu3zncls0snINAM/8utg6dKxkpiIOiNw1Gespgol7W+L896W+ixwzh1N1gpvv539/vv456yKH0GL/Pk9b/nj3F792X/+0Qfp3Bf79cVp6Oh5UnKeJZjuw4x9oeytawYBncJ1u43776NIyeG7bRx3fTyR/11sdM69LzDupu6+LuOXwF+fL59iT322gWxk7LjjFCy76QuAAA0DRVAQAA2E+ppYR+uvSE/v+2ky/fkL/LAV2krEwPcJSAVkwdEVMW/uC6vfHdNmq+P/U59/Tzx1RtcXQjY+rcym1YUtE2MaJBUton1sMQC0LuY9uuQIwMiOHXtfxvV/DfreTfQ0SZGDVQyb8XC4bulpXtKDNlJQnkKMfU3kTCQrQ/TRZJIxN9FxhBL4/ZVbf12KPPu8+2zFYdKy07lb1LdyB9Ta0vN950s2SkZ2QjjZZFwktZzFckfqz7VxuQuAAA0DRVAQAA2NdZy1kKLBis/3lPr2ZyOA2QxTBwM52Xr7Q7hv2JgPsCBw1RLHDEaurxQ2zfumm5R5xq4UTrxMU1EkkOMSy/QBbTaBSFokwkQCr596D0i0hYpMpi0VQTfSOSX5PXUPs1Rz+ovcEyQXWMtCwtd59+66k5dWbG3NdS7CJjUKaQiSkhybLYMUfdv9qCxAUAgKapCgAAoHqk5R/SLYh7pmlgOL0pK1MY0mUHSl5IJspnR/jnX4Yb6eX5u/7TIqsg0c26HY7qBhMXcG3ESJYU7m8xImWawUSvBYTRncsPvl933+EJ+tLSYtXx0arzhck607GgevN3P9UuwEwvizU/OECPkJVFckWizLpvtQmJCwAATVMVAABA9RHz2n/a97SPHE7PSUb6mYOYJNlBFt8rn1oh5taLbSvF6Ivx83Y+1eP3/QO8i0svqdriaJC4sAsxAiWFz931spEm8M//+TSE2v648zXv3am/uIhdYKyPi5YtjXu73oJdz3bia+kdWVl/ZQNf86fLR/Y4StLSMSBxAQCgaaoCAACoXhkFR3XzYx+rY1hH9xlM9LmsjHJQ38hXn9KywEoZwr6U6/j291sea/3DjvcdeuoIEhc2JdZeSGIRktiKdh097L+KWs7746FahzMjXDLyTqiOh1YtPTBW9+3mx+vP3f74PbKRPuBrSOwss5f7rmItFCQsKoPEBQCApqkKAACg+uUUnKY5ufe6DYkgX4OJPuUb9kOy2PrQ+ma++ijbppooR+K6SUaaZTC79/zj0AeNrNviKJC4sAmRsDjGlnPfDvU30f2jN1OzjNx414yceF1OTorqOGhVbOZ83fjtdzQMDKvzkMFIw/jaWcXXTgK/isV4xdQacU05xOgqh4TEBQCApqkKAADAMRRZCuhiSR5NNvk0kEJogCQWODSXbaHpOE9kxTQWE5Vy3S6w7f4mly8Cw7y6m+JH1y0oOqsrKS1Stau6IHFRBZTjXSwSVmwPH/M5HIT3D1pfq420s0HtYxc26C/xOWvd91p0+fJl4muAjmWZ3MZGed3sH+72ghRGX3I/xspipxkTXZSUaxkJi6uBxAUAgKapCgAAwLHkF2bSjFVt6g5bR705UPyZg50TsrLWhCMFO6IuJVy/TGbmAOOzoHDqsC35+zpp5+N0By/vV7XL3pC4uHbl65qUHVtZ7KRiotOSkSIDwtxHz4jt2Hvaxo5Np6/o6LJ3b7Cqv7UphTLy4uh0bpxLyvlddUdHUit/M73LfTef+24/v+bLfyYrVP0N/wCJCwAATVMVAACA40nNOUpS7L0eb2+gTgYTjZNMdIAV/OWJrfpGv/oUyWJRUSP9LoXQwJEr6M5OqZ51DmaE6I9lbVO1zV6QuLhqFSMAxEKb4hw7zT/vYQs+j6D35m5//MFfDwz0tu5f7cqiC/khFJ8Woj+c+Vyt8dHk6xdO3bm//LnvlvPrcdGXlfQzXAskLgAANE1VAAAAjmmPZQ+NzfrAdfrGzm0kIw2TTBQpiR0+HDcoEkHvIa7nr1zft4YbqdPnke3rb02a65qUvl3VPltD4uKflY+uEOdSIR+zDLaLf1/Fv4/+ftuDzy0/8EG7yMQPPC4VX1D1rRYVlxZRZOJc3daTw92Xx1HjgHXUSVK2M/2KA+wwSdkO1tGSis4LiQsAAE1TFQAAgGM7lhGhn7Wr003SeurDgdFPfFN/Sv5zcT/1DX/1y2NihMh/OfD4wLCOus+KeaixKWm0R3r+YbvtRILERaXEOSOmHeXz8clmh/kYreHXmZNj6bXwhM6dIhPGNks5v8PFuj+1apFlES1PHe1iPBZQ+8M1dKscSr34vBrOfbi4LNljKksmOtpULueHxAUAgKapCgAAwPEl5UXrXk1rV3tQDHXhQGka39iL+fOOtXDn312WlB1I4tlS/t1PiqAnv9/+ZPOl8QPrrA75wOYJDCQu/kcE1OI8KZCVETvxbC33zTdSKA0ZEU7de51q1uJI1vzaFkuMqh+1anvKKlq4d6Dnu/t9G30cXTa64i02ifsujM/pRH7NLe9X6/6GqoDEBQCApqkKAADAOWy3bKd958xuQeEebWUjfcw396scfOqICD7EFqoiwEuSw8hkMNIUKYzeCFiqazdvRy+fVXtGuFq3s6ogcVGmUFamMIgpPKFsKh+DD/3C6NGgn6jFtmNz6x8+a3aNtcSq+k+rkrO36+dt6VVvwvrWrYaHUm/uu0CDiX5hcfxzZnmfImFha0hcAABomqoAAACcS0reVv2PadQwwExPcCD1g6w8QRe7F6hv/h2HCPQusiy2gwPoBRwIDgs0eT00NbZ9i2lb2tfee2aRqq03QqOJC9HPYqrOCW77Pmbkn4P4tZ8USo8NWUnNF+79pM6Z3INu6VkHqbi4UNVvWvXDjns9+Fy8dVJ0866ykd6TjDSHz9P13H+nuf/yJEdOENZESFwAAGiaqgAAAJzLZctlunT5Au1PW+Uhmz3bcXD1gaQM/c8SwZXk2HPty6YtcJ3FgpAnWBT7ng0MCvN4dGS0d+tj2d61CovjXS4W56jafi1qcOKiYhcQkaQo5r67yAFeGv+8k38OZ4vkUPpsVITXM6Mive+bYb7Vp7D4gkth0QV9QdEFKiq5qOorLSmyFFFu6QXiPtGtXPuO69g/vH1GhXvfI4XTK3y+zJSVqSBiipNIAIlkRUV/Wx8HsCUkLgAANE1VAAAAzmtn4jKaaGxf9/PI+o/wTf7XHGyJ0Qxi9IWzDGUX9TzPEjho3My+458Hc1v6TIho0iot92AdVis996BrflGmqv3/pCYlLkQySlIWZM3n1wuSsiDkHn8z/WEw0U+Skcbw6wsjwxt0nryh/W1fR7evl3Jum83XEXEmpZeLKT3voG5x7rce3ROpwbAw6sB92JfPtUC2ih3k38/JGFnhGJC4AADQNFUBAAA4v6ik6R7jwnxul0NpgGykFXzDf0oWT+KtgwHHJgJzMZUkieu+nYPzr/nnEez/Asx034pD7/seyTI3Opplrn04w6wvvVyq6oe/cvLEhUjoiARUJvdDKrfjJNvG/RLMv0+TjPQF/7f/G7Ga7v1hV6+W32/r1fSbLb1qGY99p+oHsFBidoz73jNLGo0Mpzbch//hvpTZ/PI+FdeKGF3hLMk+bUDiAgBA01QFAABQM2w+MkM/4bf6DfxC6BGDkcZycBvLAUC2rGzVqA4MHFsRB5Vn+TWF7eWff+fXr+UwGsmBzGvDjXTPluQfbt+WMr8Fq590fr6rxbLnb/3hJIkLMQVBTO/JkZS1FBL49yMsTjLRag7cJvLrcD6WQ6QwemXYWuo8I/Z+32X7BjZedmCg98INA13+LYGjVcnnt7psT5nvw1qPjvR5nPtyJPflXBbDkmVlpI8jbyusbUhcAABomqoAAABqjm3bvqO1hwI8pqymFiPW0euSmEZgLhsCL7bCdMYATdRZBJfiibhIwoin41tkMUXCTMEGE33jZ6YPZ26jx8MSHu8anjD23rCEsW0jEsc2Doh0b+NAiQvRjkuy0gYxomQf2yErT/w38HFazHX9XA6jgf4m6udvppeHh9HDI8N1zcMSRtczHxld15ww2mv1wdGu8ZmbVMcdFNmFyTrT8bH1+By4Y/b2Ho9wn37G5nH/mkWyQhLTbJRFYjG6wtEhcQEAoGmqAgAAqFlKS4toQ+I4/UOHqd6waOrEwfAQDtZWMzHlwJnn7ysLUprKEhmFkljvwURZ7BD/vIFFcLlRCqMF/Cpx+UD2TXnQGs3/fS//rUgaZJW/xw0nciSx9oSJSlieJBbINFGiLD6H6yOLRR7N/NmCiYwGIy3jn7/l8uFSKL0sraUn5HXUc1Q4PTxqLXUatZh8F0b0rrMtea7ntlNzPTadnuu28/Q8rFNxFdYdMXgs3/9B+wW7//OkIYwGcz/P536OkpXRK2JNkEuS2Jq3kmMIDgqJCwAATVMVAABAzZNryaXIohCalT3C9cmt5DN0JfWQjDSOg7eNsjL6Qh0oOJmypEH5VAtZmQ4jXCp/qn6K2yqmynwwKozuCgyh7vz7ywEm+lRWpl/M5/74lS2+Qb/yey3kz5tlMNHnBjN9zJ/5ysi19ODoFdRxVATdOSqSidcIumPUAbp1XSY1PJwx1vNwWogrczmaxdJC9EdPhugyM+NVxxIqF500x2Xu9mda/LTjmacDwzwG8XH9hftejGI5Lv85DaRiVxDV+QMODokLAABNUxUAAEDNlW3JpqMFcXT6fJzrz7sea+xvosc5wJ7NgcExuYYGdRUJDclESVM2tH49LSeOzlyIc0nNifM8kxNXh18bsMasaRVpwnxY/VTl/T3T+PPSzsXp0nLj6G8uxVGBJY6PzY1t9ao1RZZCmlPQUTdnS0fXWRs73jRtc8dnRq/3+ZSP8w98nHeXjXZRphNh+9KaAokLAABNUxUAAIA2XCrOofyis/px0S2aBobVeqN8pIB4Oi1GYIgpGJfLWAcQzspEJ6bH3vm6dT+AYyotLaX8gjy6WJxHl0ryaJ1xiH7k8gYehpgG9caa698qR9IbfL6K0TILDcqCrRdkZd0QMQWk5py3oEDiAgBA01QFAACgPecLT+m/3NC8lRxD/TlIWMABwkF2noNCsZtHzXhijcSFUzhuOU5pBfG6zXvXurR/lDw+WkwNh4VRKymMuvibaSAfy9l8LFfy61FZSVSojzXUPEhcAABomqoAAAC0Kc2yj37Oftxz6oY2d/qHli1kubB82H1mWdDg7DsvIHHhsM5aEighJ0J/LDPC46Gs5l6fxpIvB6j3G0z0rGSkz/j4/SyZKYxf41m+XBMSaXBtkLgAANA0VQEAAGjb0dRQ3bJdA+pN3tLibg4SBshG+kFWtupMZ4WysyYwkLhwKHlFWbQj7Re3nam/1F10+gWfwC10h38IPc3n25uSmUZJJlrNx207S2A5srOed1A1kLgAANA0VQEAAICw7/xivTkxqF5gmPedkpEGcCA5iwOHGHaKiXUwnOupNxIX1e5I1kJdTOIEr8iECU1WHPqkuWE9dZPD6G0+Pn5sBh+jCHaAf06WK9ZasT6OoE1IXAAAaJqqAAAA4K+2pyzSRyV+WW9CDLXzM9HLkonGcQBhkpUn4bmyswSXSFzYXaplN63LGuy6+uDghisODm41I/amDgEmekEyUgCbysdkCdvDx+cky5CVET3OlRAD+0DiAgBA01QFAAAA1opLCykxe42LcWdg7VHBdGtAGPXiYEKsPfB7eeB5VhVoOBokLuxmwbbnay/Y/Xzrb3Z36RIYS08EmOhjPgYz+Rj8VzLRerE1bfnaKTmsWEayAv4NEhcAAJqmKgAAALiSwsJzlJq5W3c6Z7f7oj3P+Pib6T4OJF7jwGI2B6IbRXKAFamCDkeAxIXNhJ2c4jpjS+ebZ27ufP/Xmzs/LhvpLe7zbyQzreF+j2aHZCVRkcflF2VsWQrXCokLAABNUxUAAABcjYvFFyjvUoZ+fExbL4PZvaXBSA8bzDRMMtFiSRmFcYGVyI6ynSoSF9etpKSIiksKBV1xaaE+I++Iy5j1jRp9EdWox9ioRi8FRniKXWgmM5PYiYb7+wjLkpUkhRhRUcr9f7mM9XEBuBpIXAAAaJqqAAAA4FoVFJyl6T/eppfDmnl//Bu1NpjoBQ42Rktm+o2DjWPsvKwEsdUXuCJxcU0uleRTVv4xd1Zn6bp+9QIXk69spEf4mA42mClIFlM/zLSeJXLfnhHHWOLgUkJyAmwBiQsAAE1TFQAAAFyvzZs30/+NelQ3e8+j7n7bmzb4OIbuNpjoLTmMRnLwsZaD2uMc+KbJyo4R9g1wkbj4RykX4vQJZ6NqJ56NasqvzWOSprXhY/Uc912gFEbT+ed5/HM4H8OT3JfnZGWL0oppH+r+BqhKSFwAAGiaqgAAAKAqzLXMpSln+uuC9/d3X3z4tfqBe6ibv4ne8AsliQOQP9hukcjgV7Ezie2TGEhc/E9BUTbtPRPsvjs1uAm7g3WYGtuxu8FE/8d9NU0y03/5dRm/bmFn+Od8Wdnxo0hCogKqAxIXAACapioAAACoasWWixR+yV9nOurvsvagf8OQeP/OU9Z37jV8LQ2STLRAVqYc7OXAJENWFvesWLyx6hIaGklc5Fhy6LucybRt22TafWyybuPJMm7RiZMbrT8+uUPU8cmPrDn8Wc/AcHpRUqbzLOb+EdvbxrCDTIymEOtSlIgkhVSVxwDgeiFxAQCgaaoCAAAAeziUGqWLSZxVN/bkrDZjo+p09QuhVyQTTZTElplmCuUg5WD5lAQxrURMSRALfaoDmqtVAxMXicvrO+8AAEq9SURBVJYICjk1RL8qfojr2qND3FclDHFfGDew1n920k1jFtN940Po+cAwejUojN7yN1EA9+0Sto37QyygeYD7OVVS+hejKMCxIXEBAKBpqgIAAAB7O5oVott3ZoXX/vQVTdcdGN46cDXdJ4fSOxyoTGBiEchgfj3Ar2dlZUSA2LFETF2o2LVEHehYc+LExYYNE+mnTX1dfznY13PR3r7eC3b3rfcz+2rXXU39o6ijZKZnA8LpXTmCPjWE0nD+/Uu2QuzuwhJkMSXHTKn8mse/I0kBzgeJCwAATVMVAAAAVKf8i1mUkr3d5dT57bWTz29v+O0vdzUOMFM7fxO9yQGMQexowUH5VA5iVrJ9XJbMr6c5IE+XlQUjxVQTdTLDwRMXr1tep1nRXV2/j+1ae9qGrj7fbO3a9LutXZt9u6nrTV+srdfCL5Tul8LodW5LAJvE7Z1kMNIMSWw/a6ZYWezuYS7rg0xZSe6IkRQlMnb5gJoAiQsAAE1TFQAAADiS/PwsyrmYqmPuzDMq6adaH65xaRpgdunC+vibXd7yM9HbHMCPYPNFEM+vB9nhckc54EkRow8Cwl36T9jQrHbo7mauJaVfUklp8VUpvczEayX/rey/V1L2dy/RTxHN3MaZmtUZH9ms8ZiYZr7jopq1Hr+x2R3jY5q1FYZHubYzhNDDBiO9KxlpHNf5e38z/ewv1gAx0q9cf6Mk1gExU4asJCUK+N8UlgV0ypoUFeuCqIM+AGeHxAUAgKapCgAAAJzNw5aHadyGFl6Tolq0nhTTotuk6BaPToxu0XNiVIueQWGez8uhNJgD/yAWyEHQ+6wPB0G9+PcnKvGYbKTuI0Koq5+RuhjM1DkgnNoFmuj2ACaZ6Q5/M3WUQule8W8ModSVy3vw3z1eyXtV6MWf9yK/DubPnsDm8u+r+TWCRZYTC5SK9ScS+DOyJWUHDyQiAAQkLgAANE1VAAAAUJMYjw11mbPlwfqyWd9ZMtNPHAQdkZWRCzvZDmuSibYyM/8spqKs4Ncl/Pojl31b7nv+PZjL/yj/N6u4LEJSFr1UvV858Vlx/G+OyWKtCTGVQxkpoQ7QAEANiQsAAE1TFQAAANREI2Pq3CqJJIR1QGRNLF5pKtvFJL+cWDfjLP9tpmSiTP5vYoFQsThoXtl/N5URQRVGRwDYChIXAACapioAAACoia46cQEAjgeJCwAATVMVAAAA1ERIXAA4MSQuAAA0TVUAAABQEyFxAeDEkLgAANA0VQEAAEBNhMQFgBND4gIAQNNUBQAAADUREhcATgyJCwAATVMVAAAA1ERIXAA4MSQuAAA0TVUAAABQEyFxAeDEkLgAANA0VQEAAEBNhMQFgBND4gIAQNNUBQAAADUREhcATgyJCwAATVMVAAAA1ERIXAA4MSQuAAA0TVUAAABQEyFxAeDEkLgAANA0VQEAAEBNhMQFgBND4gIAQNNUBQAAADUREhcATgyJCwAATVMVAAAA1ERIXAA4MSQuAAA0TVUAAABQEyFxAeDEkLgAANA0VQEAAEBNhMQFgBND4gIAQNNUBQAAADUREhcATgyJCwAATVMVAAAA1ERIXAA4MSQuAAA0TVUAAABQEyFxAeDEkLgAANA0VQEAAEBNhMQFgBND4gIAQNNUBQAAADUREhcATgyJCwAATVMVAAAA1ERIXAA4MSQuAAA0TVUAAABQEyFxAeDEkLgAANA0VQEAAEBNhMQFgBND4gIAQNNUBQAAADUREhcATgyJCwAATVMVAAAA1ERIXAA4MSQuAAA0TVUAAABQE42NqdNUMtF4yUzbAMDJmChWNtG3w0PpXtOxiW7W1zcAANRsqgIAAICaaGJMHc/ha6mTZKTeAOBkTPSUHEb3+e+mBuvzJ+qsr28AAKjZVAUAAAA1UVb+MUrPPeKSkXfEDQCckmvmpSO6fEuW6voGAICaTVUAAAAAAAAAAOAoVAUAAAAAAAAAAI5CVQAAAAAAAAAA4ChUBQAAAAAAAAAAjkJVAAAAAAAAAADgKFQFAAAAAAAAAACOQlUAAAAAAAAAAOAoVAUAAAAAAAAAAI5CVQAAAAAAAAAA4ChUBQAAAAAAAAAAjkJVAAAAAAAAAADgKFQFAAAAAAAAAACOQlUAAAAAAAAAAOAoVAUAAAAAAAAAAI5CVQAAAAAAAAAA4ChUBQAAAAAAAAAAjkJVAAAAAAAAAADgKFQFAAAAAAAAAACOQlUAAAAAAAAAAOAoVAUAAAAAAAAAAI5CVQAAAAAAAAAA4ChUBQAAAAAAAAAAjkJVAAAAAAAAAADgKFQFAAAAAAAAAACOQlUAAAAAAAAAAOAoVAUAAAAAAAAAAI5CVQAAAAAAAAAA4ChUBQAAAAAAAAAAjkJVAAAAAAAAAADgKFQFAAAAAAAAAACOQlUAAAAAAAAAAOAoVAUAAAAAAAAAAI5CVQAAAAAAAAAA4ChUBQAAAAAAAAAAjkJVAAAAAAAAAADgKFQFAAAAAAAAAACOQlUAAAAAAAAAAOAoVAUAAAAAAAAAAI5CVQAAAAAAAAAA4ChUBQAAAAAAAAAAjkJVAAAAAAAAAADgKFQFAAAAAAAAAACOQlUAAFCZ5ORk2rRpkxtrwnyd3E2sEWtYrgGrw9xTUlL01m13VAcOHNCJOjNPVstOxGe5cj+p6uOIjh07puf6elTSDltxi4uLU9WjMmlpaRXHz/o9bMH9/PnzOus6XK3ExERx/btusu+5diNEPd337dt33W12Nunp6fY+Rq75+fmqejgLPqcrvhvs1V//RtRFv3//flVdAQAAiQsAuEpjxowh/l8LNpYtdHI/solsdLlANpi99NZbbz22dOnSHla6sttZQ+bGdOVoxYoVqr6yl549e9bhOj/M3mT97eRl1n7y5Mku1vVxRG+//XZTru8LlbTDFsRxuLtLly5X1Tfz5s2rx/++ZyXvYwuPRUVF1bGuw9UaPHiwC79HO/ZKJe/tiMSx6HPHHXc8Usn1XKEb68BuYd7M5S/Xtm7lypWqfnBkCxYs8OI230v2OUaifzsdOnTI1boezoDrrXvqqadu4TY8U94W6/ZVh5dY24cfftjNur4AAIDEBQBcpTFjxuj4pqozi2W5Tu4Cy2BnyqWyE+wI28f2/sUeUtoczAJYP/YiKTe8d3l4eNSbMWOGO3Mxm82qfrOlnj173sp1+JrFswQ72co+eO6552rzzb+qTo4kNjZW17Vr10e4vuGVtMMWDnt5eX0wffp0VV0qM2/evDb8N/MreR9bmBcVFdXcug5Xa/DgwbX4Pd5lOyp5b0d0jJTrwvp6/qudbB2bwT5hr5JybYtE18O1atW6la/rWhXX9+bNm1X94kgWLFhwEylJWHscI/FdOZy/A2pb18MZTJw4sQHX/x0WUd4W6/ZVB3GujmrVqlXTkJAQVZ0BALROVQAAUJnyxEUXtptZNOQyK2Y5pCQ5jpNykykSGhXJjA9Yr7vuuuuWESNG1GauBw8eVPVhVevZs2cz/twvSEnCWNfbVrLYdNYiODjYoYfhjxw5sj7XcwhLqaQdtnCiadOmr1vX40rmzZt3F/+NsZL3sYW1UVFRra3rcLUGDx4sRveMYJmVvLezKmWF7Cw7xRJJubYPsUhSkoLD2CD2VPfu3W/la7su82Q6R5smsWDBguZcz2lkn2MkvhPHHzp0qK51PRzdjh076MEHH+zA9V/Askk5D6zbVx1En/7B7unXr99VjdoCANASVQEAQGU0nLi4kopkRhpLYlFsFhvKHn3ooYd8X3vttdr9+/dX9WVV6dmzpwd/Vm92oJL62cpFUtr6ZHBwsEPfXI8cObIt13MJy6+kHbawpmnTpi2t63ElSFw4LBHIivNcBLUiWXmClHP+e1ISha+xO/r27dtg6NChDnMNIHFxdRYuXChGD/VhG0g5ziI5bd2+6iDOu8Ps/X79+jldvwIA2JqqAACgMkhcXJG46a0IdM6RMiJDTE2Yw/rrdLq2DzzwgPfHH3+s6tMbJRZxa968uXhyKJ4Oi0DCum62INp7lPUPDg52t66To/jjjz90t9xySw+u56byOlu3o6pdYrM2b9581XP+kbhwGuL8Ede3SFSK0U1iismvLNDT07MHX9/NmPv333+v6jd7QuLi3+3cuZPatGnjy3Ufx5LJcUZbCOI8E9MYpzdq1KjFt99+69Aj2gAA7E1VAABQGSQurkpFEqOIlBtQMWf5d/aOh4fH7Z999pmHdb/eqDvuuKMxv/94Uoa7W9fHVk6zIB8fn8aOOu9/zpw5YuFLMYVHrHVgXX9bEMmcAUVFRVcdbCBx4ZQqpo4VkBL4RrDJrHfdunVvufXWW93svdZNBSQu/l1kZKQr17sbW0bKekf2SGpeC/H/HdHsWYPBUMu6/gAAWqYqAACoDBIX10zcEFc8qRVz50UC4229Xn/bhAkT3AoKClR9fD0efPBBvU6ne56UkR72ugkXQVsou5eDYVWdqlthYSFNmjSpNdfvl/K6Wte/qolk1ZomTZq0KCoqUtXnSpC4cGoVSUoRwIspJbtImSrWh6/Hm41Go+vp06dV/WhLSFz8s+LiYvr999/FopyfkbIgp71GqV0LcV6JxaKD+Dy6aebMmVedCAUAqOlUBQAAlUHi4oaIAEc83dtPysKWj0+ZMqVRbm5uldyUenl5iS0QzaRMV7D+bFsQ7RGLkz7BwbDeuj7Vbc2aNXquW1dSkgL2GAouAtdpSUlJ3tZ1+SdIXNQoIgjOImVq0ufsQRcXl3p79uxR9aWtIHHxz+Lj48X3wh2krFUirll7JXqvVR4pi3Q+MHPmTGyNCgBQTlUAAFAZJC6qhBgGLHa4WMMGTZ48+ZYVK1bccODv5eXlQ0qwJNbYsP5MWznBhnAw7HCBy5o1a7y5bgPZQbJP4kJsrdknKSnpmoIMJC5qnIoRVmL000o2oHHjxg2jo6OrJEH5b5C4uDIx2mLWrFliMeO+pGxvLY6TdZscRQkp310DBg4cWC8lJUXVHgAALVIVAABUBomLKiNuSsX6F1uZn06nazV//vwb2pngk08+ceP3epOUZIK9niKKp4JLOBhuaV2f6rZmzZompKw7IBI5tu4PEcCFsDuTkpJUdfknSFzUWOIaF9fHdvZRq1at2oSGhtp8IVskLq4sL08cDhLbR48mZetbeyQ0b4Q4ht+wtsuXL7/h5DYAQE2gKgAAqAwSF1VKBNNii07xpH6Ut7d3q+++++66b06zs7PFsRELzq0j+04XiX3jjTc6ZWZm2uWJ8tVISUnRv/TSS+24botYYSX1rmpiu8xJrCkSF2BFPNUX1/jkdu3aPbBmzRov636tSkhcXFleXp74juxOymg3e22PfCMqFuns3adPn1onTpxQtQkAQGtUBQAAlUHiospVDCs/xAIbNWrUaubMmdeVvMjOFtO1qSkpAbQ9b8rFAnf9jx49WuW7pVyv3bt3e3KdXiVly0p7LL4ndo558fPPP/fIzc1V1eefIHFR44lrXCQSk9gv7dq16xUSElLbum+rChIXV/bOO+/U4voOYIfJ8UdbCOLcESNDRjHfLVu2qNoEAKA1qgIAgMogcWETFYHNAWZo1KjRTbNmzVL1/b8RO1lw0OJFyvafJ8rf1/qzbCGHfX/06NEG1nWqLrt37xbrW0gsg2zfDyLxZGLdN27ceM1JJyQuNEGcgyLIT2O/tW7dutf69ettss0lEhdX1qBBg5Zc35/JvusA3Sgx6mIJu2vLli0OM6oNAKC6qAoAACqDxIXNVCQv4tjgYcOG1bfu+6uxb98+sWJ+Z7aMlDn21p9jC6Luq48ePdrIuj7VITMzk3x9fVtxnb4lJaliXd+qdpqURVFv3rhxo6o+/waJC80Q14m4JtPZgiZNmnTbuXPnNS3kejWQuLiyBg0a3MP13UbOMdqigjhvxO5N/W6++Wbv1NRUVbsAALREVQAAUBkkLmyqInmxV6/Xvztu3Lh6hYWFqmPwTy5fvkyrV69uzO8xg+y7Yv5OV1fXpwoKCqr9ieDBgwdduT4vsl1k+2kiIgAS03z6BQcH1yotLVXV598gcaEpFckLMfz/K75m2u3evdtFXLfWfX29kLhQO3fuHHXo0KEBKYtyisSRdTscXQH7jjW359a6AACOSFUAAFAZJC5sTgQ2Yul7sXjcY5MmTXK/1jUTQkNDRXD5HilrT1i/v62IkQ3Tt23b5mpdH3tzd3cX2x1+SMpICOt6VjWxlog4Vo8sWbLkup6eI3GhSWL4v0h4ib68uSqDUSQu1Hr37s3VpLYstLzO1u1wBtHsCXZd3zMAADWFqgAAoDJIXNiFeIovnsiKRTZbbty48ZpGMezcuVPfqVOnjvy3q8vfy/r9bUE8RV7s4+NT7QGMu7v7TVyXL9nZSupZlUSSSaxZMPbOO++8OSYmRlWXq4HEhWaJ0VViq9R3GzRoUO96zx9rSFyo9e7dWyzWK7aKFotyWrfBWYjkcCDztm4fAICWqAoAACqDxIXdiCeyYl7z68OHD6914cIF1bH4JxwM+5L91ngQRIJko4+PTzfrutibu7t7D65LONl+qoxI1ohRLYOmTZtWx7oeVwuJC00TUwDM7NH77ruvSnblQeLi79avX0933nmn2G1pDsutpA1VRXwHCrZcDPg31s66jQAAWqIqAACoDBIXdiVWvv+JtUlKSrqmURccDIsAcwDZ7wmjuFlP9fHx+ci6LvY0depUF71e/xLXJb68Ttb1rEpimsha9ti0adPcretytZC40DRxjoo1FybedNNNrRYtWnTNu9JYQ+Li79577z0XruMjLJJst2Cx+C44Scp3ti2/d8RIvDe+/PLLGz5PAACclaoAAKAySFzYlbjJFvPgByQlJV3T01gOhsVxup9Fkf2mi+S7u7tPDAoK8rSuj720bt3ah5QdPsQUDuv6VSURnIipKF+zFtOmTbumxNJfIXGheeI638nebN68eZ2FCxeq+v1aIHHxd++99544Zw0smWz3XbiDjWWxZLvPEMS58p2vr29j63YCAGiFqgAAoDJIXNidWKhzcffu3W8uLi5WHY8rOX36NA0YMEBsCfoDu1DJ+9qCmN6y4u677+5oXR97ad26dXtSFsu0xzQRkVT6+OWXX65/8uRJVV2uFhIXVyQCQHH+Z18j8dRbTMGwZQBZ1cSUrh9ZhyFDhrhY9/u1QOLiT9wXdNNNN4n1fsQUCzEqwhajIcT33jx2N5tNyudY/5uqlOjr69vFuq0AAFqhKgAAqAwSF3YnbrSPsjeLiopUx+Of8LGqzX/3fyyxkve1BREoHrn77rtfs66LPfTr18/F1dVVDAkXTz9tEaD8lUiMiATJA8OGDbuhnVSQuLgikXwQu0B8dY2ms7nsV1ICVmEpKVMFxLUg3tfW58e1Eomw/eztIUOGXPd6KQISF38q//+r/qRMmbPVNBFxTg1m9dnLZPvdnEpcXFzef+WVV2pbtxcAQAtUBQAAlamGxIUIMMTq++Iplq2IQEZ8hrixdbSARhBB8qL09PRrCpD5WOn57x5im8l2N+1/VTZfX6fTDe3bt+81TW2pCg8//HAj/nw/llJJ3aqSaKd4Qj7X3d29dVBQkKou1wKJiyvKFudSw4YNm16Hm1lzdqtQt25dMfqoG3ubjWazSNleUozQKKTqH50hzikxMupnDko7TZs27bpHXSBx8Sf+DhSLFItEljjOtvhuF++5jt1rMplcWrdu3YyUhYFtfT6Z7r333nY5OTmqNgMA1HSqAgCAylRD4kLczC9nn9qQRMqUiihSnp6dYedJGQJsi5vd67G9adOmXa2Pxz+ZM2cOcdDWgv92Btlvuoj4nPnPPvusXVe+P3HiBN1zzz238WcvINtPExHnhJgmMujVV1+tb12Xa4XExRWdrVu37kDrOlyPPXv20N133+3KarP69erVEwFtT/YhKbvv7CPlmheBuHU97EUkF+PYG0OHDvXKzs5WteNqIHGhyMrK0n344Ye9SEncisS0dd2rQhabwnz5uqI2bdqIbVfHk+37PpW9/NJLL9WybjcAQE2nKgAAqIydExciQExzc3OTORCuYyseHh5iiG9bUlaef5ENJOVmNIolkTIqo7oTGNlNmzb1sz4e/+a9996rxX/7Dik3uvZog0j2bOJ+7WVdF1vq16+fKymLkYqnn7Z+2ineP6J+/foPTJo06YZX90fi4oqqLHFhbfLkycTnqLu4/nU6XRtSrvuppEwzEgkMe4xQsiauT9GvYsHXNsHBwde14CsSFwq+rupx3YaTshOHrb77xJbVL3bq1MkrLi6O3n//fT3/7zFSEmG2+kxBjBL85aWXXmph3W4AgJpOVQAAUJlqSFyc8fHxGWpdj6okyzINGjRIz1yZ+wMPPFCbP7cFKdMsxBNZMT9e3PxW59PYYm9v79nLly+/pvnv5VsBPsG2kH2CMRHUH+zQocObMTEx171F6LXq16+fSD4NImUkhC0DBiGX/dijR4821vW4HkhcXJHNEhd/9dFHH+nFk2v+vNbsNVK2IBYjr0QSzrpOtiY+M4o9FhwcfE1TwyogcaHg60oslrmKlCDfut5VQUwxWsHu4WP1vwSmp6dnSy77g5SEt/XfVJWynWg6d+78SGxsrJt12wEAajJVAQBAZWpi4sLa1q1bady4cTrm2qJFCxEQ38P8SQkobHkz+k9EQiCqS5cuD1nX95+89957/GdlSZjpZPspFIKop5hqM23QoEEtretjK/369buZlCfmYkcJWycuktjAHj16eFvX43ogcXFFdklcCKmpqeKa1z/33HOifSLg/ZwdIGWKga3Pp78Sn5XAPunTp0/D48ePq+r6b5C4sNCRI0c8+Vi+ynU7SLY7fmJ7VbGmTtPg4OD/fbanp6c3l33CTlbyN1VFfM+KUXSjP/vss0bW7QcAqMlUBQAAldFC4uKvQkJC6OefxXp5Lo25Ls+S8gSvOpIXoi9OdenSZZB1Hf9JbGwsdejQQQRjQ0hZUNL6fauaqKd4whkyaNCgbtb1sYXffvvNpVWrVp34M4PLP9u6TlVJBAx7GzZs2HPdunXXNZTfGhIXV2S3xEUFDsDF9e7ao0cPMfrCQMqaE7ZaH+FKxPeLOJfvEOsmWNfx3yBxYaHQ0FDRB3NISWRa17kqiBEPYlrRc6+88opHQkLC/z579uzZYpTb4+X/3Vaj9Cq+Z/9o3759B27vdS/mCgDgbFQFAACV0VriokJERIRY7FJMIXmSrabqSV5keXt7Dx89evQ1Bcy9e/9/e3cCXlV17n98JYQpEgkQxhgiCBgoClWBMmikxhQUIxWR1qqIw61NKSJaEVErcr0iCiLiECuK4nAvlzogTREURQyI4FVxgiCDA3VGjTaoKM//fV3kX9hrH0hg75N9Tr48z+epXZC937PPOTtn/c4aBjWQny0UL/ocMwza0XshOzt78AMPPBD6MObLLrvsYDnfOeJVE15HoYouPjo3Jyens7eO/UVwEVPcg4sqr7/+emqPHj208zvW2G/tw35d7U7ve8+IfvJc1bhDWteDi02bNqX27NlT17tZuqs+b81B0HVQdGeaLlOmTNljnZtPP9XLbnQXmxnGLt7p/dmgaHii27xeNHXq1Kbe6wAAycppAAA/dTW4UNu3b9dv09KNXTOi1MRn6sXu9MPy1KKiolbe2vZm0KBB8mOm6htI7zHDoB+odbj7hEmTJrXx1hOk+++/X3dO0dEwVxo7RSWsYeFVdHj4mJycnMC2eyW4iKnWggu1ZcuWlNzc3LZSx0SxxcRnjZgqP00XkeeqxoFAXQ8u1q5dq4tyXmXstsg6Qspb84HSe4xOA7nwzDPPPPizzz7b4/y7ggt9n5xn7PMY1j1Jj6sjSm5t2bJlzpNPPulcCwBIRk4DAPipy8GF2rFjh5k+fbqGF0ONHQocz86MLgb3VFFR0bHeuvamsrLSdO3aVUclTDDxmy6iIcucCRMmdP3uu++cmoIyY8YMHZbd3djtbPWc3lqCpJ20tSkpKad//fXXTi37i+AiploNLtQ333xjWrdurVunXm/sAr3xer/rqKW7pTPa7ocffnDq2pu6HFzoFrLp6em6LfJ8Y++XYYQGGlgvEP1Hjx7tjCjbuXOnKSsrqy9/ny/+bsIdnae1PCeG3H333Y3195O3HgBINk4DAPip68GFeuSRR0xWVpYuBqmdmY931emtPQz67eGbRUVFw7017Uv37t31g7SOFCnzOW4Y9MP6k2LA7Nmz92t3hOqYMWOGhkini5dM+LtAaDByT2pq6uHeOg4EwUVMtR5cKO0Myx99juYYG/zF6/2uO1McXl5e7tS0N3U5uFi5cqXe584Wr++qzVtvEPQ+cHVGRkar66+/3qlBrVu3zrRv376N/LtJJtyRYHpcHVmioXSrZcuWObUAQLJxGgDAD8GFJZ2Deu3atesj9T1l4rd4nwYX5UVFRb/11rMvv//9701aWtqh8vMPmvA+0O9Oz6Gdh+LZs2c399YThA8//FAfl+768gdjt68Mq3OgqjoI4wcOHFijLWn3heAipkgEFxUVFaZfv34akJ1l7H0vHu8fpSO6TikvL3e+1d+buhxcpKenZ0k9s0y4uwu9IoYPHTo03Xv+3S1cuFDfKxqi6GsmzFBVw7RHRO9ly5aFFhIDQFQ4DQDgh+Di30aOHNnc2J0HdAG2sD4k706Diw09evQ464UXXthjQbjqaNasWQv5+auN3UbPe+yg6fX4RNws1ynn/fffd+o5UPPnz0+V43cxdqtXPZe3hiBpOLVCnLZ169YadST3heAipkgEF0pevymFhYW608itJtwFF3f3ubiivLz8IG89e1PHg4uBUs8yE976QzpVaI7oOnTo0L3egxcuXKjT2PR3pYbFYY7U0Zo0JB755z//OeOrr75yagGAZOI0AIAfgot/kw65fjDVD8prTDiLwHnpObaIi4uLizO89exLs2bNGsrPnixW+hw7DLoDxxzRY9GiRXv9kL8/5s+fr8PC9frrqJewOipVvhb3icO3bt1ao11d9oXgIqbIBBeqtLS0sdQ0zNhv3MPqhO5OO6Q3l5eX1ygUqKvBxcyZMxvWr19fg+StJrz78Ufi0nbt2rXQKYPeGna3fv16M2TIEJ1SeK2xi3mGuT6KBre6i0nnjRs3Bnp/AoCocRoAwA/Bxb8999xzuuildhL0G/8whwJX0euhH5xvKi4ubu+tZ1+kg6zPXU9jF64Lu6Ov9BwviOGLFi3a67DqmnrnnXfMCSecoJ3oEcZugxpmR1I7QTpN5C9XXnllc12w0VvPgSC4iClSwcV7771nzjnnnDzz77UuvPWG4Y7hw4e3rMkCt3U1uOjSpYs+NzplIszFMHXU1XG9evWq1qirkpISnWJ0qgl3FIjSEWHPioIzzjijwffff+/UAgDJwmkAAD8EF3sqKCjQb2EvMHYFe2/9QdProXO37ysuLv6Zt5Z90Q63/NFvAHV7R/0G0Hv8oGmHf7O4ZNGiRZneeg7EypUr9XV4qLjB2MXvvOcOknYKlotTVq1aFdg2qFUILmKKVHCh5LnSx3+hsWuqeOsNw+PiSN0ZyFtLLHUxuLj88stT0tPTNSBYa8Ib2aBh1exmzZq1X7FihVODn5KSEr1PHSEeMHZRz7ACVj3uFjFetPn222+dWgAgWTgNAOCH4GJPBQUFaVLjYFHuU3/Q9Hrot4mlxcXFfb217Muu4EKDltNM/J4/HcI8LTc3t8OGDRsCG8K8cuVKXd9CX4e6LWHYo100lJonuq1atcqp5UARXMQUxeBC73+F4mUT3nSE3el95YzKyspqv3fqYnAxcOBAfcxTjH3MYYUDb4tz27ZtW+3RY59//rkuIKxrC1286+fDClVU1X3qZwQXAJKZ0wAAfggu9jRkyJAU+aMfmu/yqT9oej302/8XiouLT/DWsi87d+40L730kgYtvzB2q0VNMrznCJp+mNZh0kPeeOONBt6a9scHH3xgmjRpout1nGjsVJSwOiqqaprIdXPnzm2zY8cOp54DRXARU+SCC+0Qjh8//nCpbbaxa7h4aw6aBpWXVFZWVnuNmLoWXGzfvt0ce+yxx0kdS014IaYGDnof63/YYYdVO0RSkydPTk1LS9OtqJ8z9v4d1v1Kj6uLdJ4tNTb21gEAycJpAAA/BBeuvLw8nces0y+89YdBOworiouLC7x1VMemTZtMTk5OSznGJcZO4/AeP2j6HG4Q5y5YsKDxDz/84NRUU7pDifxpbeyid2HvkKLXW8OREx999NFqzWuvKYKLmCIXXCi5B+qoJd2CVwMtb81B09ff+MrKynreOmKpa8HF2WefrVsiF4v1JrxRMLrg5zWi7f7cw0aNGtXZ2G1adQRaWDWqSnFXs2bN2uq93lsHACQDpwEA/BBcuHYFF1fuqtf7GIJ2QMGFeuaZZ7Te34rXTLhDl6toB+8K0erLL7906qmpXcFFBzHXhFu/Pp86YuTxLl269Fi+fLlTSxAILmKKanCh05TONnZNgbDf8wQXe7FhwwadrqdrSDxswttyVIMGXQD41wMGDGi4P8HFTTfd1LB58+ZnyTHe2nU87zmC9LTo07Nnz2q/ZgAgkTgNAOCH4MKVl5en38CONfGZehFEcKHbiOp0EV2BPx7D3XUr0UfFMV9++WWNhln7mTZtmm5D29uE39nX15+mJFfNnDmztbeOoBBcxBTV4ELvgcPFOhNucKb0/X7FnDlzqt0JrUvBxYQJEzSEHSrKTHjTRPQeqYtr9nz33XerPWXHq7CwMN/YUCHM3UWULuB8WU5OTtMlS5Y4dQBAonMaAMAPwYUrLy+vgdR5urHfpnkfQ9AOOLjYuHGjKSoqaiPHudrYIdBhfEu5O/2GUV8vgyZNmrTfH/yryB/trPxJvOdzriD99E1r3759h6xYsaLaHceaIriIKcrBxfHiGWPXLPDWHSQNRv5T7oFNvHXEUleCi9WrV5vjjjsuV85/o7FTxsIIkfTeqDswXTxy5MhmX3zxhVNHdRUWFraS4/yn+MznPEHS+9b9ouuQIUMO+H4LAFHjNACAH4ILV15eno4A0BEMi30eQ9AOOLhQ999//8FynPOMnS6ix/SeJ2ibxB+bNGmS4a2lpuRPc3GrCb9unSbyxPjx44/x1hAkgouYohpcSGmmaoHOsEdZaWe8RO6B7bx1xFJXgotZs2ZpYHyssVvG6iKmYQSwOjpCF+U8uays7IC2Ql64cGFq27Ztf2fCXYujiu5gMnzIkCEs0gkg6TgNAOCH4MKVl5cnZf605oIOJ/Y+hqAFFVzodBGdbqHb54Xd+VJ6jkeaNGnSwVtLTcmfn4u/+5wjaB+LK8aPH9/cW0OQCC5iimRwsX79enPiiSc2k/omGTss31t3kDS4+F+5B3bx1hFLHQouNMDUkVfaSQ8rxNTnd6boVFZWdsDT3LrJHznWfGNDUe+5gqTT8ya1atWqnVynA64bAKLEaQAAPwQXrrfffts0btxYd7mIx5aogQQXn3/+uRk9evQhcqzp4nMTzreVu9Pjl6Wmph556qmnOvXUhLEjRT70OUeQ9BvR9SeddNIZW7duDfWDP8FFTJEMLtT555/fSOq7XGzzqTtI+jpcLPfAo7w1xFIXgoulS5emZGdndzJ25JVOvQjj/qWh0QYxeurUqc2++eYbp46a6tatm27jrIGXvm7CqLmKPi86UuR4ec+meesAgETmNACAH4ILf02aNEmo4EJdf/31+q3xReJNE878cC89z9C8vLz93la0e/fuOi1H1+YIu179RnTe7373uyO8NQSN4CKmqAcXfzbxCS5elntgvreGWJI9uPjxxx/NvHnzdEFkXZRzuQlnsUv93fPTjkKij5wvkM7/tm3b9HfFYDnmGhPuPUxfN7ruR3HDhg2b3XzzzU4tAJConAYA8ENw4S9BgwsNAY4RTxj7IT3MbwCVrs5/a15eXlNvLdWVnZ19qLFDrb3HDpJeh22NGzceP27cuP0OWaqL4CImggv7WnxD7oHVfr8ne3CxZo32+U07cY2xWy2Hcd/Sjr9OFbshKyurTWlpqVPH/jryyCMzjd3KOex7bqX4X9Fz8uTJLNIJIGk4DQDgh+DCXyIGF3PnzjXt2rVrL8ebZex0kbAXjNPjP56Tk5P9yiuvOPVUR3Z2dqGxO6F4jx0krfOt/Pz8M7znDwPBRUwEFwQXjjVr1qTJOQeIhcYuyumtKQj6uFaLounTpwe6wGVFRYXWr9OMdKvlMO+5euw3xGmjRo1q/M9//tOpBQASkdMAAH4ILvwlYnCh5DgZcryRxi5wF+bQ5Sr6dWlhQUFBjYdel5aWNmzWrNmFJvw69fgP5+fnd/LWEAaCi5gILggu9lBZWWkmTZpUdc9aZ8Lp+Os110Dkv7t27drlH//4h1PHgaioqNDfoX3ECyac+nengfQ0kSOvC6cWAEhETgMA+CG48JfAwUWqsVu5Pr/r2N7zBU0/SF9TUFBQ428x+/Tp09nYIdbeYwZNd0CZlJ+ff0DbH1YXwUVMBBcEF3v48ENdk9d0FHcYey/x1hMEveY6BeVP48aNa+at4UB9++235sILL2wlx7/PhL+jkz4/T4t+8rqocVgMAFHkNACAH4ILf4kaXDz33HPmiCOOOFSOeaexW+h5zxe078QdBQUFmd5a9qVPnz7HG/stq/eYQdPh1UPz8/ND3U2kCsFFTAQXBBd7OO+883SaxUCxYte5vfUEQUdc6e+3AePGjQtlbQi5Xvr6OcfYXUu85w+Svn7eE5fI6yLwEAYAaoPTAAB+CC78JWpwoYqKinSF/jNN+GtHKO0UlGZlZfWaMWOGU0ssN9xwQ6PMzEyt8ROfYwbtyTZt2rRfvny5U0cYCC5iimRw8fDDD5v27dvrjjy6reWXPnUHSacSlMk9sK+3jliSObhIS0trLuf7L/GRCW9hSx0FMX3AgAGHvP76604NQZDrpb9Hf27srihhT33TsHhOz549O+7v2kIAECVOAwD4Ibjwl8jBxYYNG0xeXt6xctxyn/MFTTtiW8RFI0eOrPa3maeddpoOD7/bhLcYXxVd6b+kU6dOTbw1hIXgIqZIBhdyD5TSTJ6414Q/1F/fL6VyD+zhrSOWJA8uDpHzLTLhdvb1up06YsSI0KZW6Fodt99+ewtjd0bREMZbQ5D09+hb4swlS5bUeIoeAESN0wAAfggu/CVycKGOPvro9sbuLhJmh0Dpc6rfUl81cuTIanUMduzYYYYOHdrbhDs8XGltr4lT8/Ly6nnrCAvBRUxRDS70HvhLsVR861N3kPT9+KjcA7t664glWYOLo446Sq/7SPGOTx1B0XvA0l69eh355ZdfOjUE6emnn06tV6/eYGMXRg57kU4ddXFDZmZmi/Xr1zu1AEAicRoAwA/Bhb9EDy5OOeWUeqmpqaeb8DtiSkdNPDRy5MhqdcbGjBmj88GHijdNuB/wtZO4qFGjRnHZTaQKwUVMUQ0udEHb3xq7PkFY0xWq6GvydrkHtvbWEUuyBhe5ubnpcq7/Ft/71BGU79PS0s47/fTTG3jPHwZ5rroZ+5jisb7QMjFw8eLFaT/++KNTCwAkCqcBAPwQXPhL9OBCtW7dWqeLbPI5Z9C0M/b2oEGDRmzevNmpw2vMmDE6GkS39NOOWJgdRV1o8bZGjRpVu5MYBIKLmKIcXJwj3vWpOWj6fp84ePDganekkzi46CvnetmnhiBtkfMM9J47LPJcNZRz6hbP+loK896mKox972ZUVFQ4tQBAonAaAMAPwYW/JAku9DHoNoPecwZNn9d/ij9NnDhxrx0yXcTuV7/61RHybx83dv2JsD7c63HXiuGN5I+3jjARXMQU1eDiIKltjInPYrb6fh9fWVlZ7alLyRhcLF68uH5WVtZ1JtyRCTqa66+5ubltvecPizxXckpTIF4w4Y9208D4IZFHcAEgkTkNAOCH4MJfMgQX8tzWk2MXm/AXwFS6zsUdEydO3GsneurUqTpNZIix61uEOURcOw1PiT5jx46t9qKhQSC4iCmqwcXhUts9JvwdRRTBhejfv39XOc8TJtw1eD4Tf8jNza3W2jtBWL16tRkwYIA+XzPFFz41BUl/n+rIjuE33nhjfW8tAJAonAYA8ENw4S8Zgovvv9dcwJwgXvI5b9D0ZGUTJ07c67DsqVOn6nX9i3jfhLu+xYdiisj99NNPnTrCRHARU+SCixUrVpjevXsPNOEvFFulzgcX8nhS2rZtO0rOs9GEN+JKLRF9c3NznRrCNHnyZN2O+o9iswn3Hqc0lL5Z3ldtvHUAQKJwGgDAD8GFvyQKLtqa+DwOfW7XH3744b/5xz/+4fvt37Jly1K6d+/e2dhvt3V+dlidFj3uOmN3LGhCcBFbXQ8u5LnSx3++sTtbhPV63J1utzq2srKy2qOAki24GDFihG6Berux00TCuuaV4qbU1NTWpaWlTg1hmjx5so500/WFSo2dDuetLUg6YmV1Wlra0WPGjHFqAYBE4DQAgB+CC3/JEFzoSvOPPfaYrtx/uYnPMPhPxJQ77rgj21uLeuihh/SbyEHGfhMa5gd67bQsFgVz586trwGOt5YwEVzEFMXgQoO0+4wN0rz1hqFcjKjjwcVJco7Vu87lPX9QdBvk30iHvrH3/GGbPHmynNq0ETOMnS4SVjij9Nj6uvhjt27dMry1AEAicBoAwA/Bhb9kCC7U5s2b0+T4vxTP+5w7aLquxKJZs2YdvXPnzj3q0P8/d+7c5sZ2knWIeFhz2/U19pG4UXR89dVXU7zXJGwEFzFFKrh45plnGjZt2vQUYzvRYQ/pr6KL0vaorKx06oklmYKLa6+9NrNRo0YapOpivmFe8zeM3bloXLt27cbGU0ZGxlg57xVikQl3ZFmV78STXbt2PYxtUQEkIqcBAPwQXPhLouBCDm/ai3tNeGFBFe2IaCewcMGCBXvM4V+2bJk0Gx0ifoMJtwOmNWwQxS1btsx88803nWsSNoKLmCITXHz33Xdmzpw5h0pNs4zdNtdba1hua9u2bdb27dudmmJJluDiq6++MhdccMEv5Ph/N3ZthjA79Bqi6igzHfFQW3RUmd6PwnycVdaLoYWFhXHdQQkAguA0AIAfggt/SRZcNBOXivd8zh8kfX51lfsrFyxYkLV7HcuWLWsg7ceJx4yd5+/92aDosZ8UBQsXLmzovR7xQHARUySCix07dpgHHnhAp1CdY+yUgrADvSr6/phWXl5eo1AgWYKL6dOn61Sxs40dDRGva15XfCVu6927d7sNGzY41x4AosxpAAA/BBf+kiW4+Pjjj83AgQPrGxsaLPU5f9D0m9SHFyxYsEdnetmyZQdJu+4k8KYJt9OiWyDecvTRR3d8+eWX4z5NRBFcxBSJ4GLbtm16zztSPGjiM5S/inYury4vL2/irWlvkii40G1n7zb2PRqva15X6PP2tOg3atQo38WRASCqnAYA8ENw4S9Zggu1fPlyfY67iodNuItiKt3KZNF5553X6+OPP/5pAcIvvvjCyOPT6znB2G1QvT8TFA1EdPHDS0pKSvYY8RFPBBcxRSK4mDJlSq7UMlVsNeGus+C1SpxUXl5eo45lMgQX69evr19UVFQgx37W2GkcBBfB0texjna7fNSoUc291x8AosxpAAA/BBf+kiy4kFOYluJiYxfG9NYQJA0PdCvSP/7f//3fT98sb9y4UbcH7CvmG7sFovdngqKjPXSayPElJSUNvNchXgguYqrV4OL22283l1xyScu0tDSdNqVrAoS5q4Wf/5H3ecdt27Y5te1NMgQX8+bN0/vpVWKzCXfEVV2lv1v13nrfz372s66lpaXV3rUGAGqb0wAAfggu/CVTcPHJJ5+Yiy++WNeYKBQvmnC/7dRj66J4swoKClp+9tlnZvDgwXruoeIVE9433FXnvWfYsGGHv/POO851iBeCi5hqLbi47bbbUlq2bKlbVP6HsQvIxvtbf+2sz5Hnyner4L1J9OBi3bp1Kb/4xS/0PfGQsZ3reF73ukRHu+nv8bOuvvrqGk1HAoDa5DQAgB+CC3/JFFyoRx55REc96PP8PybcxTFVpbHTUjq//77ODDGZxnYYdRqH998GRa+jjvS4VD60t/I+/ngiuIipVoKLO++8MzUrKytXzq/bVGpwF/aOFn50YdxL5bnK9Na3L4keXJSVlelrTNe30eBSt+70nhPB0Nf0x2LyIYcc0u6xxx5zngsAiCKnAQD8EFz4S8LgQk7z03QR7bzpXGhvHUHSb/7WiBHvv/++LgzaTdxn7IgI778NinaIlojjr7766j22Yo03gouY4hpcPPXUUyYnJ6dBRkaGru/yF2N3s9A1XsIa9bM3uh/wAHmu0rx17ksiBxcffPCBadWqVTs55nTxiamda1+XaGi8WBSWlJSwNSqAhOA0AIAfggt/yRZc7Ny509x0002N5FynGbsFZJgdCH2etZN17erVq3XbyQHGdtzCOqce9wsx59xzz+2mj9X7+OOJ4CKmuAQXr7zySor8aSw6yDl/a+zuIboQp07X0NdmvEdbaFgyT3SV58qpd18SNbjQ9+GqVavS5Hi/MnbHC+1Ux/va1zV6fXUdozGixcKFC53nBQCixmkAAD8EF/6SLbhQN998s3YiegsdfhHmIplKt368U3QRvxNrff5NUDS40Gkivx81alSNh+IHjeAiptCCiw0bNpgXX3yxvji4Xr16nY0NLGaJ1419rdfmgpBbxKUdO3ZsuWbNGqf2fUnU4OKHH/SSm6biCmN3EworuMSedGTbHHHUtGnT0r755hvnuQGAKHEaAMAPwYW/ZAwunnjiCdOpUyd9XNqR+NCE++2nLn6o25mcL24T23z+TVD0Gr7QqlWrglmzZtX6avoEFzEFFlzooq/z589PE01Fdr9+/Q6T4x9v7M45dxsblGkHTqcteeuIJ+29l4kT586dW6NtUKskeHDR09hFOTXI9J4L4dALr1P1zhAZr776qvPcAECUOA0A4Ifgwl8yBhdq7NixB8n5zhSvmnC/hdZvV/Vb1lvF302459JO0b2FhYXdvI+3NhBcxLStYcOGY2fMmNGmhtqJQ8Xh4gjx84svvvgoY4MKDcZuEvcae803iQpj31fe89cGncKkQUq3uXPn7leolqjBRUlJiY7wqhptFZXno674SEwRHV599dUU73MDAFHiNACAH4ILf0kcXGhnQp9v/RZU59576wmSBgq6tsWbPn8XJF2/YHRhYWEktgAkuIhJd7P5m7iqhq4V08RsMV88KRYau26CrteiOynodBB9PWtAFuZIoprQ8E530rlw8ODBmW+88YZz/asjUYOLtm3bZsuxZhhbd1Sek7pCRxqViuNGjhzZgOkiAKLMaQAAPwQX/pI1uHj55ZdNnz59dJX//zJ2KH2YHQp9bPqNc5jbr2pH9bXs7OxTli5d6jze2kBwEZM+V3qeLTWku+Do1CadbqSvJZ2GpHQnGX2NaUAQ5ut4f2mtuihnnylTptR4N5EqCRxc9JJjPW/YArU2VC3SqVOnsj799FPn+QGAqHAaAMAPwYW/ZA0u1PDhwzPknGcZ+211mB0+PXYV798F5V/inm7dunXwPs7aQnARk74ONGTYX2G/loKk9W4x9tq2nDJlinPtqysRg4sLL7zw4Pr1619o7DVIlOcs2egIpBLRgeACQJQ5DQDgh+DCX5IHF/XknEca+21woncqdNTI+G7dutXzPs7aQnABY0eE/Lfodc4559T/4osvnGtfXYkYXPTq1Ut3dplr7Bao3nMgPvTevkr8unPnzo28zxEARIXTAAB+CC78JXNwsWPHDp0ucoixu31oB8tbU6LQa/daRkbGqd9//73zOGsLwQXE2+KCoqKiTN1dw3vdayLRgothw4Y1SklJOcXYTnOYwaiOatGFP/9DFCaIXxu7XssmE58FSzU4ur5hw4YtGHUBIKqcBgDwQ3DhL5mDC9W3b990Oe/p4i2fmhKFDoX+a//+/Zt7H19tIrio0/Qep9OX7kxPT+9y6aWX7tdOIrtLpODi3XffNccff7yGorOMHQ3lPX6QPhd/kU55y6OPPjolQaRlZ2cPlLqfNfELjReLPp06dTqg3UXWrFlTJWWXn/7/V1995fxbAKgJpwEA/BBc+Ev24OLyyy83jRo16m7sB+gwvxUNi9asizVOrqioqO99fLWJ4KLO0tekfsNdKp3pvpdeeul+L8i5u0QKLkaPHq3T0PT3yRMm3EU59Vq/U69evZP+8Ic/HHA4FE9Tp07VaXr/Y+yuS/G492qQdlGnTp0aeGupjueffz718ccfr5+ampotxzlG/FLkiyNE1nXXXddA/j5FR/J5fxYAqsNpAAA/BBf+kj24UDnyx9gtJvUDtLeuqNNh4mtEUUVFRaQ6LgQXdZLe2/Qb9JfFhW3btm3qvdb7K1GCC92x6LjjjmsqP/8nY7eB1V1kvMcPio62+nt6enpPbx1RN3Xq1GZS+1jxjgn3Gu2uJCsr65BHH33UqSeW5cuXm1mzZjXs2LFjT/n5M8V0Y7cgfl28Ih4zdqvi00SHadOmNXj44Yed4wDAvjgNAOCH4MJfHQkuGsu5RxrbyfDWFXXfG7v4YfuKigrnsdUmgos6pyq0eFNcLTreeuutBzQsf3eJElxMmTIlVX62i/irCX80gU4TuSI9PT3TW0fUrVy5MqVfv34nS/0vGXsfC/M6VdkiCvLz86u1iPHy5ctTevXqlSk/o3U+aOznAw2KHxI3Ghti/G1X2wviFnFcVlZW+r333uscDwD2xmkAAD8EF/7qQnDxt7/9zaSkpOTL+ct21eGtLco+EZOls9Q0SgtzKoKLOmX30OJa0fWWW25J+/HHH51rvb8SKLhoKD97hlhtbIfce+yg6CgFvd6nyXstkOk48TZmzBidpne/seuAxCO40NfohPz8/GqtBzR9+vSDjV0D6e/iDXGDGCGOEm2FrmPST1wg7jV2pJFOfzm+Xbt2jeV5cY4JALE4DQDgh+DCX10ILlRqauphxi6kp+tFeGuLMv2mb5B0sCK1voUiuKgz9H6mUxZ0Z4trRbfbbrut/vbt253rfCASIbhYvHix6dixY0v52b+Ij0y4nXHthOsUty7btm1zakkEY8aM0cWR9X231YR7raro1Lqy/Pz8I721eMn9pNFhhx2mO6DoOiV6n73S2M8IfUX/Xf+rNMTosOvvJhs7feRO0eX8888PbMQRgOTnNACAH4ILf3UouDjI2G/NtvjUFlV6zfSbwDzpYDmPqbYRXNQJVaHFSmPXK+h066231q+srHSu8YFKhOBi7ty5Ok1kgFho7GKQ3uMGSUPWP4uDEzW4+OSTT0xhYeEweQyvmviMdtPX60eNGjX6zbhx4xp569ndvHnzco3dKltDC536dKj4lbHPrY6sqFJq7O8OHX2RJ+YaG+KNPFj+yPvBOTYA+HEaAMAPwYW/uhJcbNy4MU3OP1hrMOHuAhAk/ZbymoULF2YFOSQ/KAQXSU/vYxXGfiN9unQGW8+cOTP1hx9+cK5vEKIeXOhUrTvuuENHEJwvNhj77b73uEHRaSLPixNXr15df+fOnU49ieK0005rb+x6IN/4PM4w6EiVecOGDevwzTffOPWoFStWNKhfv76GFM8au4ZQj6effrpeTk6OThvZLN4zdoqLhhSviSXGroORIX5rbKAxX+TJZwvn+ADgx2kAAD8EF/7qSnCxdetWff47ihkmMaaL6GtIX6uFS5YsieT8doKLpKZrN3wsSsQvMjMzm9x8883OdQ1S1IMLef3Jj5jDxX3GrtngPWaQNFy9o0OHDjnl5eVOLYlk3Lhxqenp6eONXWjU+zjDoPfOt8XJ48ePb+itR5WVlWXJ319n7EiQ/xTZurtIbm7ucPnvTWKZ6GXsVJGHjZ0e8gfRXLQzNrTQELy3frbwHh8A/DgNAOCH4MJfXQkuPvvsM9O/f39diG2Msd+mhfltaRAqxZM95M8rr7ziPJ4oILhISvq++EIsF1c3bty428knn5w2ZcoU55oGLQGCCx21NcjY3yFhb++5RfyxtLS02vVFWZ8+fXQtidU+jzMsutvLzPHjx7fx1qLKysp04U0N5XSnkN+Igz3BxYtiqPi9se8F/f+6VerBJ5xwgo66ecDYUReD5LNFA+/xAcCP0wAAfggu/NWV4EKtWrVKdwPQ4cHPGDuc2FtjlHwgJkhnLsv7OKKC4CKp6D3ra2OHxevCg6ekpKRkT5gwoVrbSgYhAYILXZRTF2f80Od4QXtK9C4tLY3b9Q9Tnz59mhm7xaj3cYZFg6WlhYWFvdeuXeuMWCsrK9NRE/cYOwVEQ5WGuwUXW4wdbbTU2BEZ7xq7o8hRI0aMSPvwww91e20NLnQUxhD5bOE7qgMAvJwGAPBDcOGvjgUX+hrQ1eFvN7aT5q0xKvRbb90GcZh05pwP3VFBcJEU9LWm7wX99lgDC/1WWadDHDRhwoS4DoGPcnDx6aefmrPOOqub/MwiE/4aObro512nnnpqzoYNG5xaEtG9995rMjIyJhq7Zor38YZBfwdr4DB25syZTb317DbiQhedPcfsOeJi866f1UU59b/1XqwjL5qvW7fObNu2rSq4eEkcK58tkiJcAhA+pwEA/BBc+KtLwYWucD969Gido3yFsSMaojpdRDuSumDcz6Uz5zyOqCC4SGh6j/rM2F1rdK7/r0UnkTFmzJhUfd2FsXPI3kQ5uCgvL9fO6n+IjSb8bT3fEmfJ++sgbx2JLDs7u4exI3q8jzcM+hxpADS7d+/eHdesWbNHCFdWVqYjQCYY+3ngRnGIZ6qIrl+hgcaDolzcIDqsW7cuZeTIke3lvx8zdvrIMaxxAaC6nAYA8ENw4a8uBRfq0UcfbSB15IvFxi5A6K0zCj4S488999zMrVu3Oo8hKgguEo7el/Tx6y4h+u33WcbeE7MKCgoaL1myJFX8FPB5r188RDy40MBTd5iIxxSz588+++xeH3zwQVJ1iJ9//vn6xu7i4X28YdHnWLctPUvu+3uEQGVlZbpeyS/F08YutHnM8uXL6+0WXOh0wt7GbgG8wdipO8f27ds3LTU1dZT89+vGvh46s6sIgOpyGgDAD8GFv7oWXFRUVJiJEyceZuw3afHohNSUvnY2iwsmT54c6UXfCC4iQV8vOnJI5/RrEKfTGKpsN/a19Ij4o7GLDZ4guorMF198seHbb79dT+iuO841i7eoBhfbt29P6dChw4ny79eY8Edb6GOfIr+v2nnrSAby50pj14/wPu4w6HOlO0hdlZ2d3ey11177/3X861//Mrfccsuh8ne3GTsV5Ir27ds3T0tLGyb/vc7YKUFdRE9jAwoNL3TUxaniSWNH3vxu2LBh6TqNyPs4AcCP0wAAfm644QbToEGD7rs+dOg3KmF7qUWLFqO8dURNkyZNdFs43Q7OW3/QdLjt34qLi/t7a4i3mTNn6iJ7fza2I6IfQL211iYdJq5BUs/JkyenemuPkr/+9a+djd0a0vsYwnDPs88+m+Otobouuugi3QngfGPXcvAeO1Hpa1c7XfqtsT4P+pouEn0yMjJ6ZGZmHinyRBvReNKkSalff/11ijBq586dznWqTffdd5+uO6AjQeLxHGlHdNxbb721z+kYlZWV9eTfXmXstfYeJ2hPy++pX8rvq8iubXMgjJ2OtMDncYdFt0W9Wxy1atWqPdaieOyxx9IaN25cYOz7Z4u4TOg6JkeKzieeeGJDDY/lvzVQO8bY3Uc0BHxH/CUtLS179OjRSTUqBkC4nAYAiOWaa66p37179zYiNw4O6d+/f4a3hqjp3bt3qtTa3Kf+oLUXreWDYCNvDfH24IMP6mM+WGTvqstba23KES1E2l133eXUHiXz589Pkzpb+TyGMLR66aWX9rszd91115nu9jk/xOfYiUpfu/p60XuavmaaCL3HpWzatMm5BlEnHcl6Untm9/g8R3rtmm7cuHGfHc/t27fra0evbzzuFW3l91TS7lIhj0/vva19HndYfvq9IxqtXbvWqef+++9v2KJFiyHG7i6yWcw2dlTFseKoXfS/dXFOHYWhQch0kTdo0KD9vh8BqJucBgAAAADYl5KSkoZt2rQ5ydiRbquNHfWmW53quha6s8gqYxcVfVZclZaWpqFF/YkTJzrHAoC9cRoAAAAAoDruuuuuhq1bt25vjNGFN3WXHQ0xdFrIHDFNjBcnizbFxcVsfwpgvzgNAAAAAFBds2fPTrn22msbX3bZZZnGGF2/p5fQLVyzhw4dmiF/10CkfPfdd87PAkB1OA0AAAAAUFO648g999yTKtJEPZFSXl7u/DsAqCmnAQAAAAAAICqcBgAAAAAAgKhwGgAAAAAAAKLCaQAAAAAAAIgKpwEAAAAAACAqnAYAAAAAAICocBoAAAAAAACiwmkAAAAAAACICqcBAAAAAAAgKpwGAAAAAACAqHAaAAAAAAAAosJpAAAAAAAAiAqnAQAAAAAAICqcBgAAAAAAgKhwGgAAAAAAAKLCaQAAAAAAAIgKpwEAAAAAACAqnAYAAAAAAICocBoAAAAAAACiwmkAAAAAAACICqcBAAAAAAAgKpwGAAAAAACAqHAaAAAAAAAAosJpAAAAAAAAiAqnAQAAAAAAICqcBgAAAAAAgKhwGgAAAAAAAKLCaQAAAAAAAIgKpwEAAAAAACAqnAYAAAAAAICocBoAAAAAAACiwmkAAAAAAACICqcBAAAAAAAgKpwGAAAAAACAqHAaAAAAAAAAosJpAAAAAAAAiAqnAQAAAAAAICqcBgAAAAAAgKhwGgAAAAAAAKLCaQAAAAAAAIgKpwEAAAAAACAqnAYAAAAAAICocBoAAAAAAACiwmkAAAAAAACICqcBAAAAAAAgKpwGAAAAAACAqHAaAAAAAAAAosJpAAAAAAAAiAqnAQAAAAAAICqcBgAAAAAAgKhwGgAAAAAAAKLCaQAAAAAAAIgKpwEAAAAAACAqnAYAAAAAAICocBoAAAAAAACiwmkAAAAAAACICqcBAAAAAAAgKpwGAAAAAACAqHAaAAAAAAAAosJpAAAAAAAAiAqnAQAAAAAAICqcBgAAAAAAgKhwGgAAAAAAAKLCaQAAAAAAAIgKpwEAAAAAACAqnAYAAAAAAICocBoAAAAAAACiwmkAAAAAAACICqcBAAAAAAAgKpwGAAAAAACAqHAaAAAAAAAAosJpAAAAAAAAiAqnAQAAAAAAICqcBgAAAAAAgKhwGgAAAAAAAKLCaQAAAAAAAIgKpwEAAAAAACAqnAYAAAAAAICocBoAAAAAAACiwmkAAAAAAACICqcBAAAAAAAgKpwGAAAAAACAqHAaAAAAAAAAosJpAAAAAAAAiAqnAQAAAAAAICqcBgAAAAAAgKhwGgAAAAAAAKLCaQAAAAAAAIgKpwEAAAAAACAqnAYAAAAAAICocBoAAAAAAACiwmkAAAAAAACICqcBAAAAAAAgKpwGAAAAAACAqHAaAAAAAAAAosJpAAAAAAAAiAqnAQAAAAAAICqcBgAAAAAAgKhwGgAAAAAAAKLCaQAAAAAAAIiK/wecZ82T5JvztAAAAABJRU5ErkJggg==;fillOpacity=20;" parent="68" vertex="1">
                    <mxGeometry width="267.07" height="150" as="geometry"/>
                </mxCell>
                <mxCell id="135" value="" style="edgeStyle=elbowEdgeStyle;html=1;exitX=0.75;exitY=0;exitDx=0;exitDy=0;elbow=vertical;" edge="1" parent="1" source="136" target="89">
                    <mxGeometry relative="1" as="geometry">
                        <mxPoint x="641.6300000000001" y="395" as="sourcePoint"/>
                        <mxPoint x="770" y="380" as="targetPoint"/>
                    </mxGeometry>
                </mxCell>
                <mxCell id="133" value="" style="edgeStyle=elbowEdgeStyle;html=1;entryX=0.25;entryY=0;entryDx=0;entryDy=0;elbow=vertical;" edge="1" parent="1" source="130" target="136">
                    <mxGeometry relative="1" as="geometry">
                        <mxPoint x="611.6300000000001" y="365" as="targetPoint"/>
                    </mxGeometry>
                </mxCell>
                <mxCell id="130" value="&lt;div&gt;&lt;font style=&quot;font-size: 18px;&quot;&gt;[&#39;categories&#39;]&lt;/font&gt;&lt;/div&gt;" style="verticalLabelPosition=bottom;html=1;verticalAlign=top;align=center;strokeColor=none;fillColor=#00BEF2;shape=mxgraph.azure.mysql_database;" vertex="1" parent="1">
                    <mxGeometry x="552.49" y="270" width="58.75" height="75" as="geometry"/>
                </mxCell>
                <mxCell id="148" style="edgeStyle=orthogonalEdgeStyle;html=1;entryX=0.5;entryY=0;entryDx=0;entryDy=0;entryPerimeter=0;elbow=vertical;" edge="1" parent="1" source="136" target="90">
                    <mxGeometry relative="1" as="geometry">
                        <mxPoint x="860" y="510" as="targetPoint"/>
                    </mxGeometry>
                </mxCell>
                <mxCell id="QI3z4KW6B-_047XigaiU-160" style="edgeStyle=orthogonalEdgeStyle;html=1;exitX=1;exitY=0.25;exitDx=0;exitDy=0;entryX=0.5;entryY=0;entryDx=0;entryDy=0;elbow=vertical;" edge="1" parent="1" source="136" target="QI3z4KW6B-_047XigaiU-159">
                    <mxGeometry relative="1" as="geometry"/>
                </mxCell>
                <mxCell id="136" value="&lt;font style=&quot;font-size: 18px;&quot;&gt;SBERT&lt;/font&gt;" style="rounded=0;whiteSpace=wrap;html=1;" vertex="1" parent="1">
                    <mxGeometry x="552.49" y="500" width="120" height="60" as="geometry"/>
                </mxCell>
                <mxCell id="143" value="" style="edgeStyle=elbowEdgeStyle;html=1;elbow=vertical;entryX=0.802;entryY=1.037;entryDx=0;entryDy=0;entryPerimeter=0;" edge="1" parent="1" source="137" target="136">
                    <mxGeometry relative="1" as="geometry"/>
                </mxCell>
                <mxCell id="137" value="&lt;font style=&quot;font-size: 18px;&quot;&gt;Typos&lt;/font&gt;&lt;div&gt;&lt;font style=&quot;font-size: 18px;&quot;&gt;(org free text seach)&lt;/font&gt;&lt;/div&gt;" style="rounded=0;whiteSpace=wrap;html=1;" vertex="1" parent="1">
                    <mxGeometry x="600" y="610" width="180" height="60" as="geometry"/>
                </mxCell>
                <mxCell id="142" style="edgeStyle=elbowEdgeStyle;html=1;entryX=0;entryY=0.25;entryDx=0;entryDy=0;exitX=1;exitY=0.5;exitDx=0;exitDy=0;exitPerimeter=0;" edge="1" parent="1" source="YFTxTDsuqRlWMxUTLGon-156" target="136">
                    <mxGeometry relative="1" as="geometry">
                        <mxPoint x="390" y="330" as="sourcePoint"/>
                    </mxGeometry>
                </mxCell>
                <mxCell id="QI3z4KW6B-_047XigaiU-158" style="edgeStyle=none;html=1;entryX=0;entryY=0.75;entryDx=0;entryDy=0;exitX=1;exitY=0.5;exitDx=0;exitDy=0;exitPerimeter=0;" edge="1" parent="1" source="YFTxTDsuqRlWMxUTLGon-157" target="136">
                    <mxGeometry relative="1" as="geometry">
                        <mxPoint x="432.8499999999999" y="544.233396341268" as="sourcePoint"/>
                    </mxGeometry>
                </mxCell>
                <mxCell id="145" value="" style="edgeStyle=elbowEdgeStyle;html=1;elbow=vertical;" edge="1" parent="1" source="144" target="136">
                    <mxGeometry relative="1" as="geometry"/>
                </mxCell>
                <mxCell id="144" value="&lt;font style=&quot;font-size: 18px;&quot;&gt;contracts&lt;/font&gt;" style="rounded=0;whiteSpace=wrap;html=1;" vertex="1" parent="1">
                    <mxGeometry x="449.99999999999994" y="610" width="120" height="60" as="geometry"/>
                </mxCell>
                <mxCell id="147" style="edgeStyle=elbowEdgeStyle;html=1;exitX=0.1;exitY=0.2;exitDx=0;exitDy=0;exitPerimeter=0;entryX=0.5;entryY=1;entryDx=0;entryDy=0;elbow=vertical;" edge="1" parent="1" source="90" target="144">
                    <mxGeometry relative="1" as="geometry">
                        <mxPoint x="847" y="712" as="sourcePoint"/>
                        <mxPoint x="724" y="655" as="targetPoint"/>
                    </mxGeometry>
                </mxCell>
                <mxCell id="151" value="" style="edgeStyle=none;html=1;" edge="1" parent="1" source="149" target="150">
                    <mxGeometry relative="1" as="geometry"/>
                </mxCell>
                <mxCell id="149" value="&lt;font style=&quot;font-size: 18px;&quot;&gt;Experimentation&lt;/font&gt;&lt;div&gt;&lt;font style=&quot;font-size: 18px;&quot;&gt;(collaboration of PM, DS, AI engineer)&lt;/font&gt;&lt;/div&gt;" style="rounded=0;whiteSpace=wrap;html=1;" vertex="1" parent="1">
                    <mxGeometry x="1170" y="640" width="173.53" height="100" as="geometry"/>
                </mxCell>
                <mxCell id="152" style="edgeStyle=elbowEdgeStyle;html=1;entryX=0.5;entryY=0;entryDx=0;entryDy=0;elbow=vertical;exitX=0.25;exitY=0;exitDx=0;exitDy=0;" edge="1" parent="1" source="150" target="136">
                    <mxGeometry relative="1" as="geometry">
                        <mxPoint x="1020" y="360" as="sourcePoint"/>
                        <Array as="points">
                            <mxPoint x="910" y="480"/>
                        </Array>
                    </mxGeometry>
                </mxCell>
                <mxCell id="QI3z4KW6B-_047XigaiU-157" value="" style="group" vertex="1" connectable="0" parent="1">
                    <mxGeometry x="1170" y="509" width="173.52999999999997" height="104.12" as="geometry"/>
                </mxCell>
                <mxCell id="150" value="&lt;span style=&quot;font-size: 18px;&quot;&gt;Model Registry (MLflow)&lt;/span&gt;" style="rounded=0;whiteSpace=wrap;html=1;" vertex="1" parent="QI3z4KW6B-_047XigaiU-157">
                    <mxGeometry x="3.5299999999999727" y="1" width="170" height="100" as="geometry"/>
                </mxCell>
                <mxCell id="QI3z4KW6B-_047XigaiU-156" value="" style="shape=image;verticalLabelPosition=bottom;labelBackgroundColor=default;verticalAlign=top;aspect=fixed;imageAspect=0;image=https://cdn.prod.website-files.com/65264f6bf54e751c3a776db1/653004a88d0bd6e9c80afd8d_mlflow-logo.jpeg;opacity=30;" vertex="1" parent="QI3z4KW6B-_047XigaiU-157">
                    <mxGeometry width="173.53" height="104.12" as="geometry"/>
                </mxCell>
                <mxCell id="QI3z4KW6B-_047XigaiU-163" value="" style="edgeStyle=none;html=1;" edge="1" parent="1" source="QI3z4KW6B-_047XigaiU-159" target="QI3z4KW6B-_047XigaiU-161">
                    <mxGeometry relative="1" as="geometry"/>
                </mxCell>
                <mxCell id="QI3z4KW6B-_047XigaiU-159" value="&lt;font style=&quot;font-size: 18px;&quot;&gt;Online Data&lt;/font&gt;" style="rounded=0;whiteSpace=wrap;html=1;" vertex="1" parent="1">
                    <mxGeometry x="990" y="540" width="120" height="60" as="geometry"/>
                </mxCell>
                <mxCell id="QI3z4KW6B-_047XigaiU-164" style="edgeStyle=none;html=1;exitX=1;exitY=0.5;exitDx=0;exitDy=0;entryX=0;entryY=0.5;entryDx=0;entryDy=0;" edge="1" parent="1" source="QI3z4KW6B-_047XigaiU-161" target="149">
                    <mxGeometry relative="1" as="geometry"/>
                </mxCell>
                <mxCell id="QI3z4KW6B-_047XigaiU-161" value="&lt;font style=&quot;font-size: 18px;&quot;&gt;Data Preperation&lt;/font&gt;" style="rounded=0;whiteSpace=wrap;html=1;" vertex="1" parent="1">
                    <mxGeometry x="990" y="660" width="120" height="60" as="geometry"/>
                </mxCell>
                <mxCell id="YFTxTDsuqRlWMxUTLGon-156" value="&lt;span style=&quot;color: rgb(0, 0, 0); font-size: 18px; text-wrap-mode: nowrap; background-color: rgb(255, 255, 255);&quot;&gt;text_embed&lt;/span&gt;&lt;br style=&quot;padding: 0px; margin: 0px; font-size: 18px; text-wrap-mode: nowrap;&quot;&gt;&lt;span style=&quot;color: rgb(0, 0, 0); font-size: 18px; text-wrap-mode: nowrap; background-color: rgb(255, 255, 255);&quot;&gt;Store embedding&lt;/span&gt;&lt;br style=&quot;padding: 0px; margin: 0px; font-size: 18px; text-wrap-mode: nowrap;&quot;&gt;&lt;span style=&quot;color: rgb(0, 0, 0); font-size: 18px; text-wrap-mode: nowrap; background-color: rgb(255, 255, 255);&quot;&gt;in cache&lt;/span&gt;&lt;div&gt;&lt;span style=&quot;color: rgb(0, 0, 0); font-size: 18px; text-wrap-mode: nowrap; background-color: rgb(255, 255, 255);&quot;&gt;&lt;span style=&quot;color: rgb(63, 63, 63);&quot;&gt;(vector-DB)&lt;/span&gt;&lt;/span&gt;&lt;/div&gt;" style="strokeWidth=2;html=1;shape=mxgraph.flowchart.database;whiteSpace=wrap;labelPosition=center;verticalLabelPosition=bottom;align=center;verticalAlign=top;" vertex="1" parent="1">
                    <mxGeometry x="320" y="300" width="60" height="60" as="geometry"/>
                </mxCell>
                <mxCell id="YFTxTDsuqRlWMxUTLGon-157" value="&lt;span style=&quot;font-size: 18px; text-wrap-mode: nowrap; background-color: rgb(255, 255, 255);&quot;&gt;image_embed&lt;/span&gt;&lt;div&gt;&lt;span style=&quot;font-size: 18px; text-wrap-mode: nowrap; background-color: rgb(255, 255, 255);&quot;&gt;(vector-DB)&lt;/span&gt;&lt;/div&gt;" style="strokeWidth=2;html=1;shape=mxgraph.flowchart.database;whiteSpace=wrap;labelPosition=center;verticalLabelPosition=bottom;align=center;verticalAlign=top;" vertex="1" parent="1">
                    <mxGeometry x="330" y="514" width="60" height="60" as="geometry"/>
                </mxCell>
            </root>
        </mxGraphModel>
    </diagram>
</mxfile>
